<svg width="180" height="36" viewBox="0 0 180 36" fill="none" xmlns="http://www.w3.org/2000/svg">
<g clip-path="url(#clip0_3001_9495)">
<path d="M38.004 16.7124C37.9428 19.4355 39.9808 22.0446 42.8666 22.0446C45.5757 22.0446 48.0898 20.1083 48.092 16.5391C48.1011 7.03564 43.7326 1.23139 36.9816 0.221065C32.5496 -0.442603 28.0792 1.2656 24.9009 5.15182C23.3117 2.75486 20.9903 0.718246 18.1612 0.221065C13.6453 -0.574881 9.25875 0.795788 5.87416 3.75607C2.21527 6.95809 -0.0358398 11.9618 0.000431816 16.815C0.0140337 18.5233 0.00723274 26.599 0.000431816 30.321C-0.00410213 33.2243 2.33315 35.5825 5.21901 35.5848H5.22581C8.1094 35.5848 10.4489 33.2357 10.4512 30.3347C10.4557 26.5853 10.4512 19.5336 10.4512 17.814C10.4512 14.06 11.0837 12.7829 12.4416 11.5969C13.5275 10.6482 15.0305 10.3745 16.5176 10.8284C18.6508 11.4783 19.2357 14.8765 19.442 16.7101C19.4805 17.0454 19.5168 17.3738 19.5531 17.6908C19.8297 20.1608 21.9085 22.0286 24.3795 22.0286C26.8505 22.0286 29.0857 19.9943 29.2308 17.3989C29.4122 14.149 29.8179 12.8581 31.2643 11.5946C32.3502 10.6459 34.0028 10.3791 35.4491 10.9515C37.6503 11.8227 38.038 15.1502 38.0017 16.7101L38.004 16.7124Z" fill="#6633CC"/>
<path d="M45.6515 25.3798C44.8626 24.9214 43.9807 24.6934 43.0059 24.6934C42.0311 24.6934 41.1493 24.9237 40.3604 25.3798C39.5715 25.8382 38.9435 26.47 38.4742 27.2773C38.005 28.0847 37.7715 29.0175 37.7715 30.0734C37.7715 31.1293 38.005 32.0644 38.4742 32.8718C38.9435 33.6791 39.5715 34.3086 40.3604 34.7601C41.1493 35.2117 42.0311 35.4375 43.0059 35.4375C43.9807 35.4375 44.8626 35.2117 45.6515 34.7601C46.4404 34.3086 47.0683 33.6791 47.5376 32.8718C48.0069 32.0667 48.2404 31.1316 48.2404 30.0734C48.2404 29.0152 48.0069 28.0824 47.5376 27.2773C47.0683 26.47 46.4404 25.8382 45.6515 25.3798Z" fill="#04C8AC"/>
<path d="M98.6125 22.6587C97.5674 22.052 96.3863 21.7441 95.1009 21.7441C93.8156 21.7441 92.6322 22.052 91.5894 22.6587C90.5466 23.2631 89.7033 24.1115 89.0844 25.1788C88.4655 26.2439 88.1504 27.4914 88.1504 28.8871C88.1504 30.2829 88.4632 31.5304 89.0844 32.5955C89.7033 33.6628 90.5466 34.5066 91.5894 35.1042C92.6322 35.7017 93.8133 36.005 95.1009 36.005C96.3886 36.005 97.5697 35.7017 98.6125 35.1042C99.6553 34.5066 100.499 33.6628 101.117 32.5955C101.736 31.5304 102.051 30.2829 102.051 28.8871C102.051 27.4914 101.739 26.2461 101.117 25.1788C100.499 24.1115 99.6553 23.2653 98.6125 22.6587ZM98.6329 28.8848C98.6329 29.6717 98.4719 30.3673 98.1545 30.9511C97.8372 31.535 97.4064 31.9956 96.876 32.3218C96.3478 32.6456 95.7515 32.8098 95.1032 32.8098C94.4548 32.8098 93.8586 32.6456 93.3304 32.3218C92.7977 31.9956 92.367 31.5327 92.0519 30.9511C91.7345 30.3695 91.5735 29.6739 91.5735 28.8848C91.5735 28.0957 91.7345 27.3773 92.0519 26.7935C92.367 26.2119 92.7977 25.7512 93.3304 25.4251C93.8609 25.1013 94.4571 24.937 95.1032 24.937C95.7493 24.937 96.3455 25.1013 96.876 25.4274C97.4087 25.7535 97.8372 26.2142 98.1545 26.7958C98.4719 27.3819 98.6329 28.0843 98.6329 28.8871V28.8848Z" fill="#6633CC"/>
<path d="M115.048 22.4692C114.749 22.1704 114.359 22.0176 113.901 22.0176C113.423 21.9925 112.77 22.1567 112.371 23.0986L109.195 30.4469L105.99 23.0758C105.838 22.7155 105.606 22.4418 105.303 22.2594C105.006 22.0815 104.675 21.9902 104.321 21.9902C103.811 21.9902 103.398 22.1613 103.092 22.4988C102.791 22.8295 102.637 23.1785 102.637 23.5342C102.637 23.7441 102.659 23.9219 102.709 24.0747C102.757 24.2253 102.793 24.3347 102.832 24.4237L107.427 34.6638C107.595 35.0583 107.848 35.3525 108.177 35.5418C108.436 35.6901 108.705 35.7653 108.973 35.7653C109.05 35.7653 109.127 35.7585 109.204 35.7471C109.868 35.7083 110.358 35.3457 110.657 34.6683L115.282 24.4191C115.336 24.2914 115.384 24.1568 115.427 24.0223C115.475 23.8626 115.497 23.719 115.497 23.5821C115.497 23.1397 115.345 22.7634 115.048 22.4646V22.4692Z" fill="#6633CC"/>
<path d="M127.199 23.7671C126.605 23.1445 125.912 22.645 125.141 22.2869C124.366 21.9266 123.531 21.7441 122.661 21.7441C121.539 21.7441 120.462 22.0383 119.458 22.6199C118.456 23.1992 117.633 24.043 117.014 25.1286C116.395 26.2119 116.082 27.5324 116.082 29.0582C116.082 30.3673 116.37 31.5578 116.939 32.6C117.508 33.6446 118.335 34.4816 119.399 35.0882C120.457 35.6926 121.722 36.0005 123.157 36.0005C124.003 36.0005 124.835 35.8591 125.631 35.5763C126.426 35.2957 127.056 34.9605 127.501 34.5842C128.018 34.1759 128.278 33.7061 128.278 33.1861C128.278 32.7939 128.138 32.4495 127.857 32.1576C127.376 31.6558 126.651 31.5578 125.841 31.966C125.658 32.0686 125.456 32.1872 125.225 32.3332C125.023 32.4609 124.749 32.5726 124.409 32.6662C124.066 32.7597 123.597 32.8076 123.01 32.8076C122.393 32.8076 121.802 32.6548 121.253 32.3514C120.707 32.0504 120.253 31.6011 119.904 31.0172C119.748 30.7527 119.625 30.4562 119.537 30.1324H127.41C127.859 30.1324 128.256 29.9887 128.593 29.7059C128.938 29.4162 129.124 29.0331 129.144 28.561C129.144 27.6419 128.968 26.757 128.618 25.9337C128.272 25.1172 127.795 24.3874 127.202 23.7648L127.199 23.7671ZM125.519 27.1903H119.56C119.585 27.09 119.609 27.001 119.637 26.9212C119.807 26.4263 120.038 26.0295 120.324 25.7398C120.609 25.4525 120.951 25.2449 121.341 25.1241C121.747 24.9986 122.189 24.9348 122.659 24.9348C123.128 24.9348 123.583 25.0397 124.005 25.2472C124.424 25.4525 124.78 25.7376 125.066 26.0933C125.331 26.4263 125.481 26.7889 125.519 27.1903Z" fill="#6633CC"/>
<path d="M163.475 23.7671C162.881 23.1445 162.187 22.645 161.416 22.2869C160.641 21.9266 159.804 21.7441 158.936 21.7441C157.814 21.7441 156.737 22.0383 155.733 22.6199C154.731 23.1992 153.908 24.043 153.289 25.1286C152.67 26.2119 152.357 27.5324 152.357 29.0582C152.357 30.3673 152.645 31.5578 153.214 32.6C153.783 33.6446 154.611 34.4816 155.674 35.0882C156.733 35.6926 157.998 36.0005 159.433 36.0005C160.278 36.0005 161.11 35.8591 161.906 35.5763C162.702 35.2957 163.332 34.9605 163.776 34.5842C164.293 34.1759 164.556 33.7061 164.556 33.1861C164.556 32.7939 164.413 32.4495 164.134 32.1576C163.654 31.6581 162.928 31.5578 162.119 31.966C161.938 32.0663 161.736 32.1872 161.502 32.3332C161.301 32.4609 161.024 32.5726 160.686 32.6662C160.344 32.7597 159.875 32.8076 159.288 32.8076C158.671 32.8076 158.079 32.6548 157.531 32.3514C156.984 32.0504 156.531 31.6011 156.182 31.0172C156.025 30.755 155.903 30.4562 155.815 30.1324H163.688C164.134 30.1324 164.533 29.9887 164.871 29.7059C165.218 29.4162 165.402 29.0331 165.422 28.561C165.422 27.6419 165.245 26.7593 164.896 25.9337C164.549 25.1172 164.073 24.3874 163.479 23.7648L163.475 23.7671ZM156.599 25.7398C156.885 25.4525 157.227 25.2449 157.617 25.1241C158.023 24.9986 158.465 24.9348 158.934 24.9348C159.403 24.9348 159.859 25.0397 160.28 25.2472C160.7 25.4525 161.058 25.7376 161.341 26.0933C161.607 26.4263 161.756 26.7889 161.795 27.1903H155.835C155.86 27.09 155.885 27.001 155.912 26.9212C156.082 26.4263 156.313 26.0295 156.599 25.7398Z" fill="#6633CC"/>
<path d="M179.474 25.936C179.127 25.1195 178.648 24.3897 178.057 23.7671C177.463 23.1445 176.769 22.645 175.998 22.2869C175.223 21.9266 174.389 21.7441 173.518 21.7441C172.396 21.7441 171.319 22.0383 170.315 22.6199C169.313 23.1992 168.49 24.043 167.871 25.1286C167.252 26.2119 166.939 27.5347 166.939 29.0582C166.939 30.3673 167.227 31.5578 167.796 32.6C168.365 33.6446 169.193 34.4816 170.256 35.0882C171.315 35.6926 172.58 36.0005 174.015 36.0005C174.86 36.0005 175.692 35.8591 176.488 35.5763C177.284 35.2957 177.914 34.9605 178.358 34.5842C178.875 34.1759 179.136 33.7061 179.136 33.1861C179.136 32.7939 178.995 32.4495 178.714 32.1576C178.234 31.6558 177.508 31.5578 176.699 31.966C176.515 32.0663 176.313 32.1872 176.082 32.3332C175.88 32.4609 175.604 32.5726 175.266 32.6662C174.924 32.7597 174.454 32.8076 173.867 32.8076C173.251 32.8076 172.659 32.6548 172.11 32.3514C171.564 32.0504 171.111 31.6011 170.762 31.0172C170.605 30.7527 170.483 30.4562 170.394 30.1324H178.268C178.716 30.1324 179.113 29.9887 179.451 29.7059C179.798 29.4162 179.981 29.0331 180.004 28.561C180.004 27.6419 179.827 26.7593 179.478 25.9337L179.474 25.936ZM176.377 27.1903H170.417C170.442 27.09 170.467 27.001 170.494 26.9212C170.664 26.4263 170.895 26.0272 171.181 25.7398C171.467 25.4525 171.809 25.2449 172.199 25.1241C172.605 24.9986 173.047 24.9348 173.516 24.9348C173.985 24.9348 174.441 25.0397 174.863 25.2472C175.282 25.4525 175.638 25.7376 175.923 26.0933C176.189 26.4263 176.338 26.7889 176.377 27.1903Z" fill="#6633CC"/>
<path d="M146.145 21.802C144.112 21.5147 142.285 22.2924 140.974 23.9983C140.047 22.7074 138.909 21.9594 137.59 21.7769C135.661 21.5101 133.856 22.5592 133.094 23.2206C131.623 24.4977 130.875 26.1854 130.875 28.2403V34.0559C130.875 35.0001 131.639 35.7687 132.577 35.7687C133.033 35.7687 133.459 35.5908 133.781 35.267C134.103 34.9431 134.28 34.5143 134.28 34.0559V28.2426C134.28 27.0179 134.674 25.8844 135.282 25.3575C135.878 24.8398 136.649 24.6483 137.51 24.8102C137.85 24.8741 138.961 25.2686 138.952 27.6815V34.0605C138.952 35.0047 139.714 35.771 140.652 35.771C141.591 35.771 142.353 35.0047 142.353 34.0605V28.2448C142.353 27.0589 142.77 25.9026 143.391 25.3621C143.994 24.8398 144.733 24.6528 145.588 24.8102C145.932 24.8741 147.05 25.2663 147.027 27.6815V34.0605C147.027 35.0047 147.789 35.771 148.727 35.771C149.666 35.771 150.428 35.0047 150.428 34.0605V27.6815C150.428 24.2834 148.907 22.1966 146.143 21.8043L146.145 21.802Z" fill="#6633CC"/>
<path d="M79.3987 13.4589L79.3217 13.4498C75.4225 12.9754 72.319 14.3392 70.5326 17.2949C68.7462 14.0998 66.0077 13.4156 63.9878 13.4156C61.2947 13.4156 58.9348 14.841 57.9668 15.6825C55.7202 17.6302 54.4824 20.538 54.4824 23.8655V33.8137C54.4824 34.9175 55.3756 35.8161 56.4728 35.8161H56.729C57.8262 35.8161 58.7194 34.9175 58.7194 33.8137V23.8655C58.7194 21.6441 59.4698 19.6121 60.6803 18.563C61.5214 17.8332 62.3579 17.2288 64.108 17.2288C64.5478 17.2288 65.6767 17.3337 66.6493 18.3144C67.6309 19.3042 68.1228 20.8505 68.116 22.9122V33.6814C68.116 34.8582 69.0659 35.8138 70.2356 35.8138C70.8024 35.8138 71.3351 35.5926 71.7341 35.1889C72.1353 34.7852 72.3552 34.2515 72.3552 33.6814V23.8632C72.3552 21.6213 73.1441 19.4889 74.3683 18.4261C75.266 17.6484 76.3293 17.2539 77.6192 17.222C78.365 17.2037 79.4327 17.3588 80.2965 18.2072C81.2599 19.1514 81.7473 20.7342 81.7473 22.9122V33.8114C81.7473 34.9152 82.6405 35.8138 83.7377 35.8138H83.9939C85.0911 35.8138 85.9843 34.9152 85.9843 33.8114V22.9122C85.9843 17.4797 83.5201 13.9447 79.3942 13.4566L79.3987 13.4589Z" fill="#6633CC"/>
</g>
<defs>
<clipPath id="clip0_3001_9495">
<rect width="180" height="36" fill="white"/>
</clipPath>
</defs>
</svg>
