<svg width="156" height="80" viewBox="0 0 156 80" fill="none" xmlns="http://www.w3.org/2000/svg">
<g clip-path="url(#clip0_25434_1586)">
<g clip-path="url(#clip1_25434_1586)">
<path d="M5.42038 78.3347L7.56001 73.3387H8.72253L5.66287 79.8785H4.74997L4.05815 74.9325L1.64038 79.8785H0.727472L0 73.3387H1.06981L1.48347 78.2132L3.86559 73.3387H4.77136L5.42038 78.3347Z" fill="#3B3A36"/>
<path d="M14.7495 78.3347L16.8891 73.3387H18.0516L14.992 79.8785H14.0791L13.3873 74.9325L10.9695 79.8785H10.0566L9.3291 73.3387H10.3989L10.8126 78.2132L13.1947 73.3387H14.1005L14.7495 78.3347Z" fill="#3B3A36"/>
<path d="M24.0776 78.3347L26.2172 73.3387H27.3798L24.3201 79.8785H23.4072L22.7154 74.9325L20.2976 79.8785H19.3847L18.6572 73.3387H19.727L20.1407 78.2132L22.5228 73.3387H23.4286L24.0776 78.3347Z" fill="#3B3A36"/>
<path d="M26.7451 79.3139C26.7451 79.1137 26.8093 78.9493 26.9377 78.8207C27.0661 78.692 27.2301 78.6206 27.4369 78.6134C27.6366 78.6063 27.8078 78.6706 27.9362 78.7921C28.0717 78.9136 28.1359 79.078 28.1287 79.2781C28.1216 79.4782 28.0574 79.6355 27.9219 79.757C27.7864 79.8785 27.6224 79.9428 27.4227 79.9571C27.3228 79.9643 27.2301 79.95 27.1445 79.9142C27.0589 79.8856 26.9876 79.8428 26.9306 79.7856C26.8735 79.7284 26.8236 79.6641 26.795 79.5783C26.7594 79.4997 26.7451 79.4139 26.7451 79.3139Z" fill="#3B3A36"/>
<path d="M33.9911 79.8785C33.9625 79.7641 33.9483 79.6498 33.9483 79.5354C33.9483 79.4211 33.9554 79.3067 33.9697 79.1924C33.6986 79.4354 33.3991 79.6355 33.071 79.7856C32.7429 79.9357 32.3935 80.0072 32.0083 80C31.7231 79.9929 31.4663 79.95 31.2238 79.8571C30.9813 79.7641 30.7674 79.6355 30.5891 79.4711C30.4108 79.3067 30.2752 79.1066 30.1825 78.8779C30.0898 78.6492 30.047 78.3919 30.0613 78.1131C30.0898 77.6986 30.1968 77.3483 30.3965 77.0696C30.5962 76.7909 30.8529 76.5621 31.1596 76.3906C31.4663 76.2191 31.8015 76.0976 32.1795 76.0189C32.5504 75.9475 32.9212 75.9046 33.2921 75.9046L34.4618 75.9117L34.5331 75.39C34.5545 75.197 34.5474 75.0255 34.5046 74.8754C34.4689 74.7181 34.4047 74.5895 34.3049 74.4751C34.2122 74.3608 34.0838 74.275 33.934 74.2107C33.7842 74.1463 33.6059 74.1178 33.4134 74.1106C33.2422 74.1035 33.071 74.1249 32.8999 74.1678C32.7287 74.2107 32.5718 74.275 32.4291 74.3608C32.2865 74.4465 32.1652 74.5537 32.0583 74.6895C31.9513 74.8182 31.8871 74.9754 31.8443 75.147L30.7174 75.1541C30.7531 74.8253 30.8601 74.5394 31.0455 74.2964C31.2309 74.0534 31.452 73.8462 31.7231 73.6818C31.9869 73.5174 32.2794 73.3959 32.6003 73.3173C32.9212 73.2386 33.2279 73.2029 33.5275 73.2029C33.8698 73.21 34.1765 73.2672 34.4475 73.3673C34.7257 73.4673 34.9539 73.6174 35.1465 73.8033C35.339 73.9963 35.4745 74.225 35.5672 74.4894C35.6528 74.761 35.6885 75.0612 35.6528 75.3971L35.1393 78.4419C35.1037 78.6635 35.0823 78.885 35.0751 79.1066C35.068 79.3282 35.0965 79.5497 35.1536 79.7641L35.1393 79.8642H33.9911V79.8785ZM32.2294 79.0351C32.422 79.0423 32.6003 79.0208 32.7786 78.9708C32.9569 78.9279 33.1209 78.8564 33.2778 78.7707C33.4348 78.6849 33.5774 78.5777 33.7129 78.4562C33.8484 78.3347 33.9697 78.1989 34.0766 78.0559L34.3191 76.7051L33.4704 76.6979C33.2493 76.6979 33.0068 76.7122 32.7572 76.7408C32.5076 76.7694 32.2722 76.8337 32.0511 76.9195C31.83 77.0124 31.6446 77.1339 31.4877 77.2983C31.3308 77.4627 31.2381 77.6771 31.2024 77.9416C31.181 78.106 31.1953 78.2561 31.2381 78.3847C31.2809 78.5134 31.3451 78.6277 31.4378 78.7206C31.5305 78.8135 31.6446 78.885 31.773 78.9351C31.9156 79.0065 32.0654 79.0351 32.2294 79.0351Z" fill="#3B3A36"/>
<path d="M40.8601 74.3393C40.6889 74.3107 40.5106 74.2964 40.3323 74.2821C39.9543 74.2821 39.6262 74.3679 39.3481 74.5323C39.0699 74.6967 38.8274 74.9325 38.6277 75.2327L37.8004 79.8856H36.6807L37.8503 73.3458L38.9344 73.3387L38.7704 74.1035C38.9772 73.8319 39.2268 73.6174 39.4978 73.453C39.7689 73.2887 40.0898 73.21 40.4535 73.2172C40.5463 73.2172 40.639 73.2243 40.7246 73.2458C40.8101 73.2601 40.9029 73.2815 40.9884 73.3101L40.8601 74.3393Z" fill="#3B3A36"/>
<path d="M43.5846 80C43.1282 79.9928 42.7288 79.8999 42.3936 79.7284C42.0583 79.5497 41.7873 79.321 41.5805 79.028C41.3737 78.7349 41.231 78.4061 41.1454 78.0273C41.0599 77.6557 41.0385 77.2626 41.0741 76.8552L41.1027 76.5979C41.1383 76.3191 41.1954 76.0404 41.2881 75.7616C41.3737 75.4829 41.4949 75.2184 41.6304 74.9611C41.7731 74.711 41.9371 74.4751 42.1297 74.2535C42.3222 74.0391 42.5362 73.8533 42.7787 73.6961C43.014 73.5388 43.2779 73.4173 43.5561 73.3315C43.8342 73.2458 44.1338 73.2029 44.4547 73.2172C44.9183 73.2315 45.3034 73.3315 45.6101 73.5174C45.9168 73.7032 46.1522 73.9462 46.3305 74.2464C46.5016 74.5466 46.6157 74.8897 46.6657 75.2685C46.7156 75.6473 46.7156 76.0332 46.6585 76.4263L46.5801 76.9266H42.201C42.1653 77.1839 42.1653 77.4341 42.201 77.6914C42.2366 77.9416 42.3151 78.1774 42.4363 78.3776C42.5576 78.5848 42.7145 78.7492 42.9213 78.8779C43.1282 79.0065 43.3849 79.078 43.6845 79.0851C44.0625 79.0923 44.4048 79.0137 44.7044 78.8493C45.0039 78.6849 45.282 78.4705 45.5317 78.2132L46.1736 78.7421C46.0238 78.9493 45.8526 79.1352 45.6672 79.2924C45.4746 79.4497 45.2749 79.5783 45.0467 79.6855C44.8256 79.7927 44.5902 79.8713 44.3477 79.9214C44.0981 79.9857 43.8414 80.0071 43.5846 80ZM44.3905 74.132C44.1053 74.1177 43.8556 74.1678 43.6345 74.275C43.4134 74.3822 43.2209 74.5251 43.0497 74.711C42.8857 74.8897 42.7359 75.0969 42.6147 75.3185C42.4934 75.5472 42.3936 75.7759 42.3151 76.0118L45.5816 76.0261L45.603 75.9189C45.6387 75.7045 45.6387 75.4972 45.6101 75.2828C45.5816 75.0755 45.5174 74.8825 45.4176 74.7181C45.3177 74.5537 45.1822 74.4108 45.011 74.3036C44.847 74.1964 44.633 74.1392 44.3905 74.132Z" fill="#3B3A36"/>
<path d="M49.6109 73.3315L49.4469 74.1606C49.7179 73.8676 50.0246 73.6389 50.3741 73.4673C50.7164 73.2958 51.0944 73.21 51.5081 73.2172C51.8647 73.2243 52.1642 73.2958 52.4067 73.4245C52.6421 73.5531 52.8346 73.7246 52.9702 73.9391C53.1057 74.1535 53.1984 74.4036 53.234 74.6895C53.2768 74.9754 53.2768 75.2756 53.2483 75.5901L52.5137 79.8785H51.394L52.1286 75.5758C52.1571 75.3757 52.1571 75.197 52.1357 75.0255C52.1143 74.8539 52.0644 74.711 51.9931 74.5823C51.9146 74.4537 51.8076 74.3536 51.665 74.2821C51.5223 74.2107 51.3369 74.1678 51.1158 74.1678C50.9233 74.1606 50.7378 74.1892 50.5666 74.2393C50.3955 74.2964 50.2386 74.3679 50.0959 74.4608C49.9462 74.5537 49.8107 74.6681 49.6823 74.7967C49.5539 74.9254 49.4398 75.0683 49.3399 75.2113L48.5055 79.8785H47.3857L48.5554 73.3387L49.6109 73.3315Z" fill="#3B3A36"/>
<path d="M58.326 79.8785C58.2975 79.7641 58.2832 79.6498 58.2832 79.5354C58.2832 79.4211 58.2904 79.3067 58.3046 79.1924C58.0336 79.4354 57.7341 79.6355 57.406 79.7856C57.0779 79.9357 56.7284 80.0072 56.3433 80C56.058 79.9929 55.8013 79.95 55.5588 79.8571C55.3163 79.7641 55.1023 79.6355 54.924 79.4711C54.7457 79.3067 54.6102 79.1066 54.5175 78.8779C54.4248 78.6492 54.382 78.3919 54.3962 78.1131C54.4248 77.6986 54.5318 77.3483 54.7315 77.0696C54.9312 76.7909 55.1879 76.5621 55.4946 76.3906C55.8013 76.2191 56.1365 76.0976 56.5145 76.0189C56.8853 75.9475 57.2562 75.9046 57.6271 75.9046L58.7967 75.9117L58.8681 75.39C58.8895 75.197 58.8823 75.0255 58.8395 74.8754C58.8039 74.7181 58.7397 74.5895 58.6398 74.4751C58.5471 74.3608 58.4187 74.275 58.269 74.2107C58.1192 74.1463 57.9409 74.1178 57.7483 74.1106C57.5772 74.1035 57.406 74.1249 57.2348 74.1678C57.0636 74.2107 56.9067 74.275 56.7641 74.3608C56.6215 74.4465 56.5002 74.5537 56.3932 74.6895C56.2862 74.8182 56.2221 74.9754 56.1793 75.147L55.0524 75.1541C55.0881 74.8253 55.195 74.5394 55.3805 74.2964C55.5659 74.0534 55.787 73.8462 56.058 73.6818C56.3219 73.5174 56.6143 73.3959 56.9353 73.3173C57.2562 73.2386 57.5629 73.2029 57.8624 73.2029C58.2048 73.21 58.5115 73.2672 58.7825 73.3673C59.0606 73.4673 59.2889 73.6174 59.4814 73.8033C59.674 73.9963 59.8095 74.225 59.9022 74.4894C59.9949 74.761 60.0235 75.0612 59.9878 75.3971L59.4743 78.4419C59.4386 78.6635 59.4172 78.885 59.4101 79.1066C59.403 79.3282 59.4315 79.5497 59.4886 79.7641L59.4743 79.8642H58.326V79.8785ZM56.5644 79.0351C56.757 79.0423 56.9353 79.0208 57.1136 78.9708C57.2919 78.9279 57.4559 78.8564 57.6128 78.7707C57.7697 78.6849 57.9124 78.5777 58.0479 78.4562C58.1834 78.3347 58.3046 78.1989 58.4116 78.0559L58.6541 76.7051L57.8054 76.6979C57.5843 76.6979 57.3418 76.7122 57.0922 76.7408C56.8426 76.7694 56.6072 76.8337 56.3861 76.9195C56.165 77.0124 55.9796 77.1339 55.8227 77.2983C55.6658 77.4627 55.573 77.6771 55.5374 77.9416C55.516 78.106 55.5302 78.2561 55.573 78.3847C55.6158 78.5134 55.68 78.6277 55.7727 78.7206C55.8655 78.8135 55.9796 78.885 56.1079 78.9351C56.2506 79.0065 56.4004 79.0351 56.5644 79.0351Z" fill="#3B3A36"/>
<path d="M63.925 76.5979H60.9795L61.1435 75.683H64.0891L63.925 76.5979Z" fill="#3B3A36"/>
<path d="M66.6917 73.3315L66.5491 74.0606C66.8201 73.7818 67.1268 73.5674 67.4691 73.4173C67.8114 73.2744 68.1823 73.2029 68.5888 73.21C68.7743 73.2172 68.9526 73.2386 69.1309 73.2744C69.3092 73.3173 69.4732 73.3744 69.623 73.4602C69.7728 73.546 69.9083 73.6532 70.0224 73.789C70.1365 73.9248 70.2221 74.082 70.2863 74.2607C70.5787 73.9319 70.9068 73.6675 71.2705 73.4816C71.6342 73.2958 72.055 73.2029 72.5115 73.21C72.8752 73.2172 73.1819 73.2815 73.4315 73.4102C73.6811 73.5317 73.8808 73.7032 74.0306 73.9176C74.1804 74.132 74.2731 74.3751 74.3302 74.661C74.3801 74.9468 74.3872 75.2542 74.3516 75.5758L73.617 79.8714H72.4972L73.2318 75.5615C73.2604 75.3542 73.2604 75.1613 73.2318 74.9897C73.2104 74.8182 73.1534 74.6681 73.0678 74.5466C72.9822 74.4251 72.861 74.325 72.7112 74.2607C72.5614 74.1892 72.3688 74.1535 72.1335 74.1535C71.9195 74.1463 71.7198 74.1821 71.5273 74.2536C71.3347 74.325 71.1635 74.4179 71.0066 74.5394C70.8497 74.661 70.7213 74.8039 70.6072 74.9754C70.5002 75.147 70.4218 75.3328 70.3719 75.5329L69.6087 79.8785H68.4819L69.2236 75.5758C69.245 75.3757 69.245 75.1899 69.2165 75.0183C69.1879 74.8468 69.1309 74.6967 69.0382 74.5752C68.9526 74.4537 68.8313 74.3536 68.6744 74.2821C68.5247 74.2107 68.3392 74.1678 68.111 74.1678C67.7401 74.1606 67.4192 74.2393 67.141 74.4036C66.87 74.568 66.6347 74.7968 66.4421 75.0969L65.5934 79.8785H64.4736L65.6433 73.3387L66.6917 73.3315Z" fill="#3B3A36"/>
<path d="M79.5366 79.2352C79.2656 79.5068 78.9589 79.707 78.6237 79.8285C78.2885 79.95 77.9248 80.0071 77.5325 80C77.1688 79.9929 76.8692 79.9214 76.6267 79.7856C76.3842 79.6498 76.1917 79.4711 76.0562 79.2495C75.9207 79.028 75.8279 78.7707 75.7851 78.4776C75.7424 78.1846 75.7352 77.8844 75.7709 77.5628L76.4912 73.3387H77.611L76.8835 77.5842C76.8621 77.7629 76.855 77.9344 76.8692 78.106C76.8835 78.2775 76.9191 78.4347 76.9905 78.5705C77.0547 78.7063 77.1545 78.8207 77.2829 78.9065C77.4113 78.9922 77.5824 79.0423 77.7964 79.0494C78.1958 79.0637 78.5524 78.9851 78.8662 78.8278C79.18 78.6634 79.4439 78.4276 79.6579 78.106L80.4995 73.3387H81.6192L80.4567 79.8785H79.394L79.5366 79.2352Z" fill="#3B3A36"/>
<path d="M83.4166 79.8785H82.2969L83.9515 70.5941H85.0713L83.4166 79.8785Z" fill="#3B3A36"/>
<path d="M88.2166 71.752L87.9313 73.3387H89.1509L88.994 74.2035H87.7815L87.0826 78.2703C87.0683 78.3776 87.0683 78.4705 87.0754 78.5634C87.0826 78.6563 87.104 78.7349 87.1467 78.8064C87.1824 78.8779 87.2395 78.935 87.3108 78.9708C87.3821 79.0137 87.482 79.028 87.6032 79.028C87.6959 79.028 87.7886 79.0208 87.8742 79.0065C87.9669 78.9922 88.0596 78.9779 88.1452 78.9636L88.0597 79.8785C87.7886 79.95 87.5176 79.9857 87.2395 79.9857C86.9827 79.9786 86.7687 79.9285 86.5976 79.8285C86.4264 79.7284 86.2909 79.5997 86.191 79.4354C86.0912 79.271 86.027 79.0923 85.9913 78.885C85.9557 78.6777 85.9486 78.4633 85.97 78.2418L86.6546 74.1892H85.4707L85.6276 73.3244H86.8115L87.0968 71.7377H88.2166V71.752Z" fill="#3B3A36"/>
<path d="M90.5563 79.8785H89.4365L90.6062 73.3387H91.7259L90.5563 79.8785ZM90.8273 71.6233C90.8344 71.4304 90.8915 71.2731 91.0127 71.1516C91.134 71.0301 91.2909 70.9586 91.4834 70.9515C91.5833 70.9515 91.6689 70.9586 91.7544 70.9944C91.8329 71.023 91.9042 71.0658 91.9684 71.1302C92.0255 71.1873 92.0754 71.2588 92.1039 71.3374C92.1324 71.4161 92.1467 71.5018 92.1467 71.5947C92.1467 71.7877 92.0825 71.9378 91.9613 72.0593C91.84 72.1808 91.6831 72.2452 91.4906 72.2523C91.298 72.2594 91.134 72.2094 91.0127 72.0879C90.8772 71.9664 90.8201 71.8092 90.8273 71.6233Z" fill="#3B3A36"/>
<path d="M94.607 73.3315L94.4644 74.0606C94.7354 73.7818 95.0421 73.5674 95.3844 73.4173C95.7268 73.2744 96.0976 73.2029 96.5042 73.21C96.6896 73.2172 96.8679 73.2386 97.0462 73.2744C97.2245 73.3173 97.3886 73.3744 97.5383 73.4602C97.6881 73.546 97.8236 73.6532 97.9377 73.789C98.0518 73.9248 98.1374 74.082 98.2016 74.2607C98.494 73.9319 98.8221 73.6675 99.1858 73.4816C99.5496 73.2958 99.9704 73.2029 100.427 73.21C100.791 73.2172 101.097 73.2815 101.347 73.4102C101.596 73.5317 101.796 73.7032 101.946 73.9176C102.096 74.132 102.196 74.3751 102.246 74.661C102.295 74.9468 102.303 75.2542 102.267 75.5758L101.525 79.8714H100.405L101.14 75.5615C101.169 75.3542 101.169 75.1613 101.14 74.9897C101.119 74.8182 101.062 74.6681 100.976 74.5466C100.89 74.4251 100.769 74.325 100.619 74.2607C100.47 74.1892 100.277 74.1535 100.042 74.1535C99.8277 74.1463 99.628 74.1821 99.4355 74.2536C99.2429 74.325 99.0717 74.4179 98.9148 74.5394C98.7579 74.661 98.6295 74.8039 98.5154 74.9754C98.4084 75.147 98.33 75.3328 98.2801 75.5329L97.5169 79.8785H96.3901L97.1318 75.5758C97.1532 75.3757 97.1532 75.1899 97.1247 75.0183C97.0961 74.8468 97.0391 74.6967 96.9464 74.5752C96.8608 74.4537 96.7395 74.3536 96.5826 74.2821C96.4329 74.2107 96.2474 74.1678 96.0192 74.1678C95.6483 74.1606 95.3274 74.2393 95.0492 74.4036C94.7782 74.568 94.5429 74.7968 94.3503 75.0969L93.5016 79.8785H92.3818L93.5515 73.3387L94.607 73.3315Z" fill="#3B3A36"/>
<path d="M106.04 80C105.583 79.9928 105.184 79.8999 104.849 79.7284C104.513 79.5497 104.242 79.321 104.036 79.028C103.829 78.7349 103.686 78.4061 103.601 78.0273C103.515 77.6557 103.494 77.2626 103.529 76.8552L103.558 76.5979C103.593 76.3191 103.65 76.0404 103.743 75.7616C103.829 75.4829 103.95 75.2184 104.086 74.9611C104.228 74.711 104.392 74.4751 104.585 74.2535C104.777 74.0391 104.991 73.8533 105.234 73.6961C105.469 73.5388 105.733 73.4173 106.011 73.3315C106.289 73.2458 106.589 73.2029 106.91 73.2172C107.373 73.2315 107.759 73.3315 108.065 73.5174C108.372 73.7032 108.607 73.9462 108.786 74.2464C108.957 74.5466 109.071 74.8897 109.121 75.2685C109.171 75.6473 109.171 76.0332 109.114 76.4263L109.035 76.9266H104.656C104.62 77.1839 104.62 77.4341 104.656 77.6914C104.692 77.9416 104.77 78.1774 104.891 78.3776C105.013 78.5848 105.17 78.7492 105.376 78.8779C105.583 79.0065 105.84 79.078 106.14 79.0851C106.518 79.0923 106.86 79.0137 107.159 78.8493C107.459 78.6849 107.737 78.4705 107.987 78.2132L108.629 78.7421C108.479 78.9493 108.308 79.1352 108.122 79.2924C107.93 79.4497 107.73 79.5783 107.502 79.6855C107.281 79.7927 107.045 79.8713 106.803 79.9214C106.56 79.9857 106.304 80.0071 106.04 80ZM106.846 74.132C106.56 74.1177 106.311 74.1678 106.09 74.275C105.869 74.3822 105.676 74.5251 105.505 74.711C105.341 74.8897 105.191 75.0969 105.07 75.3185C104.948 75.5472 104.849 75.7759 104.77 76.0118L108.037 76.0261L108.058 75.9189C108.094 75.7045 108.094 75.4972 108.065 75.2828C108.037 75.0755 107.972 74.8825 107.873 74.7181C107.773 74.5537 107.637 74.4108 107.466 74.3036C107.309 74.1964 107.095 74.1392 106.846 74.132Z" fill="#3B3A36"/>
<path d="M110.17 76.5979C110.205 76.3263 110.255 76.0547 110.334 75.7831C110.412 75.5115 110.512 75.247 110.633 74.9969C110.754 74.7467 110.897 74.5109 111.068 74.2893C111.232 74.0677 111.432 73.8819 111.646 73.7175C111.86 73.5531 112.102 73.4316 112.366 73.3387C112.63 73.2458 112.923 73.21 113.244 73.2172C113.586 73.2243 113.907 73.2958 114.206 73.4173C114.506 73.546 114.756 73.7461 114.969 74.0105L115.611 70.5941H116.731L115.084 79.8785H114.064L114.185 79.1781C113.921 79.4568 113.629 79.6641 113.301 79.807C112.972 79.9428 112.616 80.0143 112.224 80C111.931 79.9929 111.674 79.9357 111.453 79.8428C111.232 79.7427 111.04 79.614 110.883 79.4497C110.719 79.2853 110.59 79.0923 110.483 78.8779C110.376 78.6634 110.298 78.4347 110.241 78.1917C110.191 77.9487 110.155 77.7057 110.148 77.4556C110.141 77.2054 110.148 76.9624 110.17 76.7265V76.5979ZM111.282 76.7265C111.261 76.8838 111.254 77.0482 111.247 77.2268C111.247 77.4055 111.254 77.5771 111.275 77.7486C111.296 77.9201 111.339 78.0845 111.396 78.2418C111.453 78.399 111.532 78.5348 111.632 78.6563C111.732 78.7778 111.86 78.8707 112.01 78.9493C112.159 79.0208 112.345 79.0637 112.552 79.0637C112.744 79.0708 112.915 79.0494 113.079 79.0065C113.244 78.9636 113.393 78.8922 113.536 78.8135C113.679 78.7278 113.814 78.6277 113.935 78.5062C114.057 78.3847 114.171 78.2561 114.278 78.1131L114.813 75.0898C114.691 74.8039 114.52 74.5823 114.292 74.4251C114.064 74.2678 113.786 74.1821 113.465 74.1749C113.115 74.1678 112.816 74.2321 112.566 74.3822C112.316 74.5251 112.102 74.7181 111.924 74.954C111.753 75.1898 111.61 75.4543 111.51 75.7402C111.411 76.0332 111.339 76.3191 111.304 76.605L111.282 76.7265Z" fill="#3B3A36"/>
<path d="M118.072 79.8785H116.952L118.122 73.3387H119.242L118.072 79.8785ZM118.343 71.6233C118.35 71.4304 118.407 71.2731 118.528 71.1516C118.65 71.0301 118.806 70.9586 118.999 70.9515C119.099 70.9515 119.184 70.9586 119.27 70.9944C119.349 71.023 119.42 71.0658 119.484 71.1302C119.541 71.1873 119.591 71.2588 119.62 71.3374C119.648 71.4161 119.662 71.5018 119.662 71.5947C119.662 71.7877 119.598 71.9378 119.477 72.0593C119.356 72.1808 119.199 72.2452 119.006 72.2523C118.814 72.2594 118.65 72.2094 118.528 72.0879C118.393 71.9664 118.336 71.8092 118.343 71.6233Z" fill="#3B3A36"/>
<path d="M123.991 79.8785C123.963 79.7641 123.948 79.6498 123.948 79.5354C123.948 79.4211 123.955 79.3067 123.97 79.1924C123.699 79.4354 123.399 79.6355 123.071 79.7856C122.743 79.9357 122.393 80.0072 122.008 80C121.723 79.9929 121.466 79.95 121.224 79.8571C120.981 79.7641 120.767 79.6355 120.589 79.4711C120.411 79.3067 120.275 79.1066 120.183 78.8779C120.09 78.6492 120.047 78.3919 120.061 78.1131C120.09 77.6986 120.197 77.3483 120.396 77.0696C120.596 76.7909 120.853 76.5621 121.16 76.3906C121.466 76.2191 121.802 76.0976 122.18 76.0189C122.55 75.9475 122.921 75.9046 123.292 75.9046L124.462 75.9117L124.533 75.39C124.554 75.197 124.547 75.0255 124.505 74.8754C124.469 74.7181 124.405 74.5895 124.305 74.4751C124.212 74.3608 124.084 74.275 123.934 74.2107C123.784 74.1463 123.606 74.1178 123.413 74.1106C123.242 74.1035 123.071 74.1249 122.9 74.1678C122.729 74.2107 122.572 74.275 122.429 74.3608C122.286 74.4465 122.165 74.5537 122.058 74.6895C121.951 74.8182 121.887 74.9754 121.844 75.147L120.717 75.1541C120.753 74.8253 120.86 74.5394 121.046 74.2964C121.231 74.0534 121.452 73.8462 121.723 73.6818C121.987 73.5174 122.279 73.3959 122.6 73.3173C122.921 73.2386 123.228 73.2029 123.527 73.2029C123.87 73.21 124.176 73.2672 124.448 73.3673C124.726 73.4673 124.954 73.6174 125.146 73.8033C125.339 73.9963 125.475 74.225 125.567 74.4894C125.653 74.761 125.688 75.0612 125.653 75.3971L125.139 78.4419C125.104 78.6635 125.082 78.885 125.075 79.1066C125.068 79.3282 125.097 79.5497 125.154 79.7641L125.139 79.8642H123.991V79.8785ZM122.229 79.0351C122.422 79.0423 122.6 79.0208 122.779 78.9708C122.957 78.9279 123.121 78.8564 123.278 78.7707C123.435 78.6849 123.577 78.5777 123.713 78.4562C123.848 78.3347 123.97 78.1989 124.077 78.0559L124.319 76.7051L123.47 76.6979C123.249 76.6979 123.007 76.7122 122.757 76.7408C122.508 76.7694 122.272 76.8337 122.051 76.9195C121.83 77.0124 121.645 77.1339 121.488 77.2983C121.331 77.4627 121.238 77.6771 121.202 77.9416C121.181 78.106 121.195 78.2561 121.238 78.3847C121.281 78.5134 121.345 78.6277 121.438 78.7206C121.53 78.8135 121.645 78.885 121.773 78.9351C121.916 79.0065 122.065 79.0351 122.229 79.0351Z" fill="#3B3A36"/>
<path d="M126.815 79.3139C126.815 79.1137 126.88 78.9493 127.008 78.8207C127.136 78.692 127.3 78.6206 127.507 78.6134C127.707 78.6063 127.878 78.6706 128.006 78.7921C128.142 78.9136 128.206 79.078 128.199 79.2781C128.192 79.4782 128.128 79.6355 127.992 79.757C127.857 79.8785 127.693 79.9428 127.493 79.9571C127.393 79.9643 127.3 79.95 127.215 79.9142C127.129 79.8856 127.058 79.8428 127.001 79.7856C126.944 79.7284 126.894 79.6641 126.865 79.5783C126.83 79.4997 126.815 79.4139 126.815 79.3139Z" fill="#3B3A36"/>
<path d="M132.421 78.349L134.839 73.3387H136.023L132.642 79.8785H131.786L130.467 73.3387H131.572L132.421 78.349Z" fill="#3B3A36"/>
<path d="M137.863 73.3315L137.685 74.1606C137.984 73.8676 138.326 73.6389 138.704 73.4673C139.082 73.2958 139.503 73.21 139.96 73.2172C140.359 73.2243 140.687 73.2958 140.951 73.4245C141.215 73.5531 141.422 73.7246 141.572 73.9391C141.721 74.1535 141.821 74.4036 141.864 74.6895C141.907 74.9754 141.914 75.2756 141.878 75.5901L141.072 79.8785H139.831L140.644 75.5758C140.673 75.3757 140.673 75.197 140.652 75.0255C140.63 74.8539 140.573 74.711 140.495 74.5823C140.409 74.4537 140.288 74.3536 140.131 74.2821C139.974 74.2107 139.774 74.1678 139.525 74.1678C139.311 74.1606 139.111 74.1892 138.918 74.2393C138.733 74.2964 138.555 74.3679 138.398 74.4608C138.234 74.5537 138.084 74.6681 137.941 74.7967C137.806 74.9254 137.677 75.0683 137.563 75.2113L136.643 79.8785H135.402L136.693 73.3387L137.863 73.3315Z" fill="#3B3A36"/>
<path d="M140.673 36.2655H1.21973V63.1966H140.673V36.2655Z" fill="#FBED23"/>
<path d="M140.673 1.12213H1.21973V36.2727H140.673V1.12213Z" fill="white"/>
<path d="M18.7642 26.0806H13.4009L12.6592 29.69H7.83789L13.5863 7.81917H18.7357L24.477 29.69H19.5345L18.7642 26.0806ZM17.78 21.3491L16.0968 13.487L14.4279 21.3491H17.78Z" fill="#ED2024"/>
<path d="M37.0869 29.69V7.81917H44.9607C46.4228 7.81917 47.5354 7.99786 48.3057 8.35522C49.0759 8.71259 49.6964 9.37729 50.1743 10.3493C50.6521 11.3214 50.8804 12.5007 50.8804 13.8944C50.8804 15.1094 50.7021 16.153 50.3383 17.0321C49.9746 17.9112 49.4825 18.6259 48.8477 19.1691C48.4412 19.5193 47.892 19.8052 47.1859 20.0339C47.7494 20.3055 48.1559 20.57 48.4127 20.8416C48.5838 21.0203 48.8406 21.4062 49.1687 21.9923C49.4967 22.5784 49.7178 23.0358 49.8319 23.3503L52.1213 29.69H46.7865L44.2618 23.0072C43.9408 22.1424 43.6556 21.5778 43.4059 21.3205C43.0636 20.9845 42.6785 20.813 42.2505 20.813H41.8297V29.69H37.0869ZM41.8297 16.6819H43.8196C44.0336 16.6819 44.4544 16.5818 45.0748 16.3817C45.3887 16.2888 45.6454 16.06 45.838 15.6955C46.0377 15.331 46.1375 14.9022 46.1375 14.4304C46.1375 13.7229 45.9806 13.1797 45.6668 12.8009C45.353 12.422 44.7682 12.2362 43.9052 12.2362H41.8297V16.6819Z" fill="#ED2024"/>
<path d="M64.7373 7.81917L77.3967 7.82632V12.4935L69.473 12.4864V15.96H77.3967V20.4199H69.473V24.7297H77.3967V29.6828H64.7373V7.81917Z" fill="#ED2024"/>
<path d="M90.4912 7.81917H94.8988L100.654 19.9196V7.81917H105.105V29.69H100.654L94.9345 17.6825V29.69H90.4912V7.81917Z" fill="#ED2024"/>
<path d="M128.378 26.0806H123.014L122.272 29.69H117.451L123.2 7.81917H128.349L134.09 29.69H129.148L128.378 26.0806ZM127.4 21.3491L125.717 13.487L124.048 21.3491H127.4Z" fill="#ED2024"/>
<path d="M7.81641 56.421L10.548 42.448L15.0055 52.5471L19.62 42.448L22.0734 56.421H20.0622L18.8069 48.5732L14.9628 57.0142L11.2327 48.5661L9.84192 56.421H7.81641Z" fill="#3B3A36"/>
<path d="M27.8936 43.42V51.2463C27.8936 52.3613 28.0719 53.1761 28.4428 53.6978C28.9849 54.4412 29.748 54.82 30.7393 54.82C31.7307 54.82 32.501 54.4483 33.043 53.6978C33.4067 53.1975 33.5922 52.3827 33.5922 51.2463V43.42H35.5464V51.7895C35.5464 53.1618 35.1184 54.2839 34.2697 55.1702C33.314 56.1565 32.1372 56.6497 30.7393 56.6497C29.3415 56.6497 28.1718 56.1565 27.2161 55.1702C26.3674 54.2839 25.9395 53.1546 25.9395 51.7895V43.42H27.8936Z" fill="#3B3A36"/>
<path d="M42.9418 43.42V54.5698H46.7575V56.4138H40.9805V43.42H42.9418Z" fill="#3B3A36"/>
<path d="M53.9543 45.264V56.4138H51.9929V45.264H49.0117V43.42H56.9283V45.264H53.9543Z" fill="#3B3A36"/>
<path d="M63.5824 43.42V56.4138H61.6211V43.42H63.5824Z" fill="#3B3A36"/>
<path d="M116.995 43.42V56.4138H115.033V43.42H116.995Z" fill="#3B3A36"/>
<path d="M68.5605 56.421L71.2921 42.448L75.7497 52.5471L80.3641 42.448L82.8176 56.421H80.8063L79.5511 48.5732L75.7069 57.0142L71.9768 48.5661L70.5861 56.421H68.5605Z" fill="#3B3A36"/>
<path d="M95.0776 45.264H89.8783V48.3874H95.0776V50.2314H89.8783V54.577H95.0776V56.421H87.917V43.42H95.0776V45.264Z" fill="#3B3A36"/>
<path d="M100.397 56.421V43.42H103.122C104.427 43.42 105.461 43.5486 106.217 43.806C107.03 44.0561 107.765 44.4849 108.428 45.0925C109.769 46.3147 110.439 47.9228 110.439 49.9169C110.439 51.9182 109.74 53.5335 108.35 54.7628C107.651 55.3775 106.916 55.8063 106.146 56.0493C105.433 56.2923 104.413 56.4138 103.093 56.4138H100.397V56.421ZM102.352 54.577H103.236C104.113 54.577 104.848 54.4841 105.433 54.2982C106.018 54.1052 106.545 53.7908 107.016 53.3619C107.979 52.4828 108.464 51.3321 108.464 49.9169C108.464 48.4946 107.986 47.3367 107.037 46.4505C106.182 45.6571 104.919 45.264 103.243 45.264H102.359V54.577H102.352Z" fill="#3B3A36"/>
<path d="M130.581 53.2619H125.025L123.577 56.421H121.466L127.885 42.6052L134.075 56.421H131.943L130.581 53.2619ZM129.789 51.4179L127.863 47.0008L125.845 51.4179H129.789Z" fill="#3B3A36"/>
<path d="M134.09 35.029H7.81641V37.5092H134.09V35.029Z" fill="#3B3A36"/>
<path d="M151.435 0C152.206 0 152.954 0.200125 153.682 0.593228C154.409 0.986331 154.98 1.55097 155.386 2.28714C155.793 3.02332 156 3.78808 156 4.58143C156 5.36764 155.8 6.12526 155.394 6.85428C154.994 7.58331 154.431 8.14795 153.703 8.5482C152.976 8.94845 152.22 9.14857 151.428 9.14857C150.636 9.14857 149.88 8.94845 149.153 8.5482C148.426 8.14795 147.862 7.58331 147.463 6.85428C147.056 6.12526 146.856 5.36764 146.856 4.58143C146.856 3.78808 147.063 3.02332 147.47 2.28714C147.876 1.55097 148.447 0.986331 149.181 0.593228C149.916 0.200125 150.672 0 151.435 0ZM151.435 0.757616C150.793 0.757616 150.166 0.922005 149.559 1.25078C148.953 1.57956 148.475 2.05128 148.133 2.66595C147.791 3.28062 147.62 3.91673 147.62 4.58143C147.62 5.23899 147.791 5.8751 148.126 6.47548C148.461 7.083 148.932 7.54757 149.538 7.89065C150.144 8.22657 150.772 8.39811 151.435 8.39811C152.091 8.39811 152.726 8.22657 153.332 7.89065C153.939 7.55472 154.409 7.083 154.745 6.47548C155.08 5.86795 155.251 5.23899 155.251 4.58143C155.251 3.91673 155.08 3.28062 154.737 2.66595C154.395 2.05128 153.924 1.57956 153.311 1.25078C152.698 0.922005 152.077 0.757616 151.435 0.757616ZM149.431 7.10444V2.17993H151.121C151.699 2.17993 152.113 2.22282 152.377 2.31573C152.633 2.40865 152.84 2.56589 152.997 2.7946C153.154 3.02332 153.225 3.25918 153.225 3.51648C153.225 3.87385 153.097 4.18833 152.84 4.45278C152.584 4.71723 152.241 4.86733 151.82 4.90306C151.992 4.97454 152.134 5.06031 152.241 5.16037C152.441 5.35335 152.683 5.68212 152.969 6.13955L153.568 7.10444H152.598L152.163 6.32538C151.82 5.71786 151.542 5.3319 151.335 5.18181C151.193 5.06745 150.979 5.01027 150.701 5.01027H150.237V7.10444H149.431ZM150.223 4.33843H151.186C151.642 4.33843 151.956 4.26695 152.127 4.13115C152.298 3.99535 152.377 3.80952 152.377 3.58796C152.377 3.44501 152.334 3.30921 152.255 3.19485C152.177 3.0805 152.063 2.99473 151.92 2.93755C151.778 2.88037 151.514 2.85178 151.121 2.85178H150.223V4.33843Z" fill="#3B3A36"/>
<path d="M0 0V64.4331H141.9V0H0ZM139.432 61.953H2.47483V2.48012H139.432V61.953Z" fill="#3B3A36"/>
</g>
</g>
<defs>
<clipPath id="clip0_25434_1586">
<rect width="156" height="80" fill="white"/>
</clipPath>
<clipPath id="clip1_25434_1586">
<rect width="156" height="80" fill="white"/>
</clipPath>
</defs>
</svg>
