<svg width="289" height="52" viewBox="0 0 289 52" fill="none" xmlns="http://www.w3.org/2000/svg">
<path d="M131.543 23.5L128.298 25.5745C126.277 22.383 123.511 20.8404 120.053 20.8404C117.234 20.8404 114.84 21.851 112.926 23.8191C111.011 25.8404 110.053 28.3404 110.053 31.3191C110.053 34.351 111.011 36.851 112.926 38.8191C114.84 40.8404 117.287 41.7979 120.266 41.7979C122.713 41.7979 124.681 41.1064 126.277 39.7234C127.872 38.3404 128.777 36.4787 128.936 34.1915H118.457V30.7872H132.553V45.4149H129.096V40.8936C128.191 42.383 126.915 43.5 125.319 44.2979C123.723 45.0957 121.915 45.5213 119.894 45.5213C115.957 45.5213 112.66 44.1915 109.947 41.4787C107.287 38.8191 105.904 35.4149 105.904 31.3723C105.904 27.3298 107.234 23.9255 109.947 21.2659C112.66 18.6064 115.957 17.2234 119.894 17.2234C125.106 17.2234 128.936 19.2979 131.543 23.5Z" fill="#4F4E50"/>
<path d="M140.266 33.234V45.4681H136.489V17.2234H146.277C148.989 17.2234 151.117 17.9681 152.66 19.4574C154.202 20.9468 154.947 22.8617 154.947 25.2553C154.947 28.8723 153.085 31.3191 149.362 32.5957L155.851 45.5213H151.436L145.532 33.2872H140.266V33.234ZM140.266 20.7872V29.6702H145.851C147.5 29.6702 148.723 29.2447 149.628 28.4468C150.532 27.6489 150.957 26.5851 150.957 25.2021C150.957 23.8191 150.532 22.7021 149.734 21.9574C148.883 21.1596 147.713 20.7872 146.17 20.7872H140.266Z" fill="#4F4E50"/>
<path d="M160.745 21.2128C163.404 18.5532 166.702 17.2234 170.638 17.2234C174.575 17.2234 177.872 18.5532 180.532 21.2128C183.192 23.8723 184.521 27.2766 184.521 31.3191C184.521 35.2553 183.192 38.6064 180.479 41.3191C177.819 44.0851 174.521 45.4681 170.638 45.4681C166.702 45.4681 163.404 44.1383 160.745 41.4787C158.085 38.8191 156.755 35.4149 156.755 31.3723C156.755 27.3298 158.085 23.8723 160.745 21.2128ZM163.564 38.8723C165.479 40.8936 167.819 41.9042 170.638 41.9042C173.404 41.9042 175.745 40.8936 177.66 38.8191C179.575 36.7447 180.532 34.2979 180.532 31.3723C180.532 28.3936 179.575 25.8936 177.66 23.8723C175.745 21.851 173.404 20.8404 170.585 20.8404C167.766 20.8404 165.426 21.851 163.511 23.8191C161.596 25.8404 160.638 28.3404 160.638 31.3191C160.692 34.351 161.649 36.851 163.564 38.8723Z" fill="#4F4E50"/>
<path d="M208.245 17.2234V35.0425C208.245 38.2872 207.34 40.8936 205.532 42.7021C203.723 44.5638 201.17 45.4681 197.819 45.4681C194.628 45.4681 192.128 44.5106 190.213 42.6489C188.298 40.7872 187.394 38.1808 187.394 34.883V17.2234H191.17V34.7234C191.17 37.0638 191.755 38.8191 192.979 39.9893C194.202 41.2128 195.851 41.7979 197.925 41.7979C200.053 41.7979 201.702 41.2128 202.872 40.0425C204.042 38.8723 204.628 37.1702 204.628 34.9893V17.2234H208.245Z" fill="#4F4E50"/>
<path d="M216.33 34.0851V45.5213H212.553V17.5426H222.819C225.638 17.5426 227.872 18.2873 229.468 19.8298C231.064 21.3724 231.862 23.3404 231.862 25.7873C231.862 28.3404 231.064 30.3617 229.468 31.8511C227.872 33.3404 225.585 34.0851 222.606 34.0851H216.33ZM216.33 21.0532V30.5213H222.5C224.202 30.5213 225.479 30.0958 226.436 29.2447C227.394 28.3936 227.872 27.2234 227.872 25.7873C227.872 24.3511 227.447 23.1809 226.543 22.3298C225.638 21.4787 224.362 21.0532 222.66 21.0532H216.33Z" fill="#4F4E50"/>
<path d="M259.734 25.6277L243.936 29.883C242.5 30.2553 241.596 31.7447 242.021 33.234L246.277 49.0319C246.649 50.4681 248.138 51.3723 249.628 50.9468L265.426 46.6915C266.862 46.3192 267.766 44.8298 267.34 43.3404L263.085 27.5426C262.713 26.1064 261.223 25.2021 259.734 25.6277Z" fill="#F493A5"/>
<path d="M286.223 13.234L267.819 8.28724C265.798 7.75532 263.936 9.61702 264.468 11.6383L269.415 30.0426C269.947 32.0638 272.5 32.7553 273.989 31.266L287.447 17.8085C288.936 16.3192 288.245 13.766 286.223 13.234Z" fill="#B2D235"/>
<path d="M258.138 9.08511C259.681 14.883 256.223 20.8936 250.426 22.4362C244.628 23.9787 238.617 20.5213 237.074 14.7234C235.532 8.92553 238.989 2.9149 244.787 1.37234C250.585 -0.170211 256.596 3.28724 258.138 9.08511Z" fill="#F69221"/>
<path d="M87.766 17.2234C79.734 17.1702 73.2447 23.8191 73.5106 31.9043C73.7766 39.1383 79.6277 45.0957 86.8085 45.4681C90.3191 45.6808 93.5106 44.5638 96.117 42.6489C96.117 44.1915 97.3936 45.4681 98.9362 45.4681H101.755V31.6383C101.755 23.9255 95.4787 17.2766 87.766 17.2234ZM87.6596 39.8298C82.9787 39.8298 79.2021 36.0532 79.2021 31.3723C79.2021 26.6915 82.9787 22.9149 87.6596 22.9149C92.3404 22.9149 96.117 26.6915 96.117 31.3723C96.117 36.0532 92.3404 39.8298 87.6596 39.8298Z" fill="#005198"/>
<path d="M14.9468 17.2234C11.4362 17.0106 8.24468 18.1277 5.6383 20.0426V11.5851C5.6383 8.44681 3.1383 5.89362 0 5.89362V31.0532C0 38.766 6.32979 45.4149 14.0426 45.4681C22.0745 45.5745 28.5638 38.9255 28.2447 30.7872C27.9787 23.6064 22.1809 17.6489 14.9468 17.2234ZM14.1489 39.8298C9.46809 39.8298 5.69149 36.0532 5.69149 31.3723C5.69149 26.6915 9.46809 22.9149 14.1489 22.9149C18.8298 22.9149 22.6064 26.6915 22.6064 31.3723C22.6064 36.0532 18.8298 39.8298 14.1489 39.8298Z" fill="#005198"/>
<path d="M65 31.3724V22.8617H70.6383C72.1808 22.8617 73.4574 21.5851 73.4574 20.0426V17.2234H65V11.5851C65 8.44684 62.4468 5.94684 59.3617 5.94684V17.2766V22.9149V31.3724C59.3617 39.1915 65.6915 45.5213 73.5106 45.5213V39.8298C68.8298 39.8298 65 36.0532 65 31.3724Z" fill="#005198"/>
<path d="M43.8298 39.8298C40.1596 39.8298 37.0213 37.4894 35.851 34.1915H49.734H51.8085H57.6596C57.8723 33.1809 57.9787 32.117 57.9255 31.0532C57.7659 23.2873 51.2234 17.0639 43.4574 17.2234C35.4787 17.383 29.1489 24.1915 29.6808 32.2766C30.1064 39.2447 35.7447 44.9362 42.7128 45.4149C48.2979 45.8405 53.2447 42.9681 55.9042 38.6064L52.6596 36.6383C51.8085 36.1596 50.7447 36.3192 50.1064 37.0639C48.5106 38.766 46.3298 39.8298 43.8298 39.8298ZM43.8298 22.8617C47.5 22.8617 50.6383 25.2022 51.8085 28.5H35.851C37.0213 25.2553 40.1064 22.8617 43.8298 22.8617Z" fill="#005198"/>
</svg>
