<svg width="424" height="106" viewBox="0 0 424 106" fill="none" xmlns="http://www.w3.org/2000/svg">
<rect width="424" height="106" fill="#D1D1D1"/>
<g clip-path="url(#clip0_8_62)">
<path d="M12 17.5093H27.2086C30.7687 17.5093 34.0222 17.914 36.9651 18.7195C39.9079 19.525 42.4716 20.7902 44.652 22.513C46.8325 24.2358 48.5308 26.461 49.7491 29.1907C50.9654 31.9204 51.5746 35.1362 51.5746 38.8381C51.5746 41.881 51.0743 44.6473 50.0759 47.139C49.0774 49.6307 47.6514 51.7562 45.7977 53.5157C43.9441 55.2751 41.7455 56.6216 39.202 57.5552C36.6585 58.4889 33.8951 58.9567 30.9159 58.9567H12V17.5093ZM26.9363 46.5349H27.8621C30.4782 46.5349 32.5961 45.8942 34.2138 44.6107C35.8295 43.3292 36.6383 41.3867 36.6383 38.7832C36.6383 35.962 35.8758 33.873 34.3489 32.5163C32.822 31.1617 30.6597 30.4823 27.8621 30.4823H26.9363V46.5328V46.5349Z" fill="black"/>
<path d="M140.627 34.3306C139.282 33.0858 137.874 32.0769 136.404 31.3081C134.931 30.5392 133.414 30.1527 131.851 30.1527C129.596 30.1527 127.68 30.9419 126.101 32.5163C124.519 34.0926 123.729 35.9985 123.729 38.2319C123.729 39.3689 123.946 40.4225 124.382 41.3928C124.818 42.365 125.427 43.2254 126.208 43.976C126.988 44.7286 127.888 45.3042 128.906 45.7069C129.923 46.1117 130.978 46.3111 132.069 46.3111C133.705 46.3111 135.222 45.9815 136.622 45.3225C138.019 44.6635 139.355 43.7116 140.627 42.4647L140.192 57.966C139.647 58.2223 138.911 58.4603 137.983 58.68C137.055 58.8997 136.103 59.0725 135.121 59.2027C134.141 59.3309 133.158 59.4305 132.178 59.5058C131.198 59.579 130.324 59.6156 129.562 59.6156C126.69 59.6156 123.975 59.0848 121.413 58.021C118.851 56.9572 116.616 55.4642 114.708 53.54C112.8 51.6158 111.32 49.3723 110.265 46.8074C109.21 44.2424 108.683 41.5128 108.683 38.6163C108.683 35.7199 109.228 32.8356 110.319 30.1771C111.408 27.5207 112.945 25.1938 114.926 23.1963C116.907 21.1989 119.204 19.6429 121.822 18.5242C124.439 17.4055 127.22 16.8481 130.163 16.8481C133.578 16.8481 136.922 17.4156 140.194 18.5527L140.629 34.3286L140.627 34.3306Z" fill="black"/>
<path d="M145.134 17.5093H176.533V30.9766L168.301 30.5922V58.9567H153.365V30.5922L145.134 30.9766V17.5093Z" fill="black"/>
<path d="M232.04 16.6591H250.083C252.481 16.6591 254.706 16.9255 256.759 17.4564C258.813 17.9873 260.62 18.8314 262.183 19.9847C263.744 21.14 264.973 22.6432 265.862 24.4921C266.752 26.3431 267.197 28.5317 267.197 31.062C267.197 34.1049 266.588 36.4217 265.372 38.0164C264.154 39.611 262.11 40.8843 259.24 41.8363V42.1658L259.458 42.3305C260.475 43.136 261.239 43.9069 261.747 44.6392L270.687 58.1065H253.461L246.92 44.8039H246.648V58.1065H232.038V16.6591H232.04ZM246.65 35.0202H247.684C249.211 35.0202 250.41 34.7924 251.283 34.3327C252.154 33.8751 252.592 32.9496 252.592 31.5563C252.592 30.163 252.174 29.1744 251.337 28.6985C250.5 28.2225 249.32 27.9845 247.793 27.9845H246.65V35.0202Z" fill="black"/>
<path d="M279.723 58.1085L296.13 43.4309L296.184 43.376C297.201 42.4607 298.165 41.5718 299.073 40.7094C299.981 39.849 300.908 38.8767 301.852 37.7967C302.796 36.7166 303.587 35.6243 304.224 34.5259C304.86 33.4276 305.178 32.4553 305.178 31.6132C305.178 30.6979 304.852 29.9189 304.198 29.2761C303.545 28.6354 302.744 28.314 301.8 28.314C300.382 28.314 299.438 28.7818 298.966 29.7155C298.494 30.6491 298.22 31.9224 298.147 33.5354H283.538C284.082 27.415 285.827 22.9625 288.77 20.1779C291.713 17.3933 296.237 16 302.342 16C304.523 16 306.667 16.3214 308.775 16.9621C310.883 17.6048 312.773 18.5385 314.443 19.765C316.115 20.9935 317.45 22.5333 318.449 24.3822C319.447 26.2332 319.947 28.312 319.947 30.6206C319.947 32.6363 319.546 34.4954 318.747 36.1999C317.948 37.9045 316.875 39.4076 315.53 40.7073C314.185 42.0091 312.65 43.136 310.923 44.0879C309.196 45.0419 307.389 45.8107 305.499 46.3965V46.8359L312.531 45.8473L320.544 45.3531V58.1064H279.715L279.723 58.1085Z" fill="#DC002D"/>
<path d="M326.055 39.3629L342.899 16.6591H360.561V38.9764L365.738 38.592V50.2449L360.177 49.8056L360.559 58.1065H346.385L346.929 49.8056L326.051 50.2449V39.3609L326.055 39.3629ZM339.684 39.1432V39.3629L346.933 38.9785V32.7665C346.933 31.7414 347.151 30.6044 347.587 29.3595L347.26 29.1399C346.752 30.2382 345.987 31.3936 344.971 32.6038L339.684 39.1452V39.1432Z" fill="#DC002D"/>
<path d="M373.099 29.9636V16.6591H413L389.614 58.1065H373.097L388.578 31.8858L388.741 31.6112C389.358 30.5128 389.885 29.7785 390.322 29.4124V29.0829L384.326 29.5772L373.097 29.9616L373.099 29.9636Z" fill="#DC002D"/>
<path d="M102.794 31.2207C101.541 28.3588 99.7781 25.8996 97.5069 23.8473C95.2357 21.795 92.6115 20.2247 89.6343 19.1385C86.6592 18.0524 83.5065 17.5093 80.1784 17.5093C76.8502 17.5093 73.6875 18.0524 70.6922 19.1385C67.6968 20.2247 65.0827 21.795 62.8499 23.8473C60.619 25.9017 58.8662 28.3588 57.5934 31.2207C56.3207 34.0846 55.6853 37.2312 55.6853 40.6687C55.6853 44.1062 56.3126 47.3119 57.5652 50.1758C58.8178 53.0397 60.5706 55.4683 62.8216 57.4617C63.9734 58.4807 65.2219 59.3757 66.5612 60.1486C68.7518 55.0147 74.0163 51.3942 80.1763 51.3942C86.3364 51.3942 91.6009 55.0147 93.7914 60.1486C95.1328 59.3757 96.3793 58.4828 97.5311 57.4637C99.7821 55.4704 101.535 53.0417 102.787 50.1778C104.04 47.3159 104.667 44.1469 104.667 40.6708C104.667 37.1946 104.04 34.0866 102.787 31.2227L102.794 31.2207ZM80.1804 49.8849C75.4121 49.8849 71.5474 45.9877 71.5474 41.1793C71.5474 39.3303 72.1202 37.6177 73.0945 36.2081C73.4011 35.6813 73.7641 35.183 74.1897 34.7172C75.7166 33.0391 77.7135 32.2011 80.1804 32.2011C82.6472 32.2011 84.6441 33.0411 86.171 34.7172C86.5966 35.185 86.9597 35.6813 87.2663 36.2081C88.2405 37.6177 88.8134 39.3303 88.8134 41.1793C88.8134 45.9877 84.9487 49.8849 80.1804 49.8849Z" fill="black"/>
<path d="M225.912 31.2207C224.66 28.3588 222.897 25.8996 220.626 23.8473C218.354 21.795 215.73 20.2247 212.753 19.1385C209.778 18.0524 206.625 17.5093 203.297 17.5093C199.969 17.5093 196.806 18.0524 193.811 19.1385C190.816 20.2247 188.202 21.795 185.969 23.8473C183.738 25.9017 181.985 28.3588 180.712 31.2207C179.439 34.0846 178.804 37.2312 178.804 40.6687C178.804 44.1062 179.431 47.3119 180.684 50.1758C181.937 53.0397 183.689 55.4683 185.94 57.4617C187.092 58.4807 188.341 59.3757 189.68 60.1486C191.871 55.0147 197.135 51.3942 203.295 51.3942C209.455 51.3942 214.72 55.0147 216.91 60.1486C218.252 59.3757 219.498 58.4828 220.65 57.4637C222.901 55.4704 224.654 53.0417 225.906 50.1778C227.159 47.3159 227.786 44.1469 227.786 40.6708C227.786 37.1946 227.159 34.0866 225.906 31.2227L225.912 31.2207ZM203.299 49.8849C198.531 49.8849 194.666 45.9877 194.666 41.1793C194.666 39.3303 195.239 37.6177 196.213 36.2081C196.52 35.6813 196.883 35.183 197.309 34.7172C198.835 33.0391 200.832 32.2011 203.299 32.2011C205.766 32.2011 207.763 33.0411 209.29 34.7172C209.715 35.185 210.078 35.6813 210.385 36.2081C211.359 37.6177 211.932 39.3303 211.932 41.1793C211.932 45.9877 208.067 49.8849 203.299 49.8849Z" fill="black"/>
<path d="M411.175 66.5823H12V67.878H411.175V66.5823Z" fill="#DC002D"/>
<path d="M66.5632 86.9062L68.3443 76.3191H71.031L73.1711 81.9839L75.4201 76.3191H78.1371L79.7225 86.9062H76.9914L76.2229 80.8102H76.1987L73.6754 86.9062H72.5942L70.1798 80.8102H70.1475L69.2742 86.9062H66.5632Z" fill="black"/>
<path d="M87.3126 85.0675H83.5549L82.8328 86.9062H79.9323L83.9724 76.3191H86.9496L90.907 86.9062H88.0005L87.3126 85.0675ZM86.5744 82.9622L85.459 79.5878H85.4327L84.3032 82.9622H86.5744ZM85.459 87.2154C85.7676 87.2154 86.0278 87.3232 86.2416 87.5388C86.4554 87.7544 86.5623 88.0168 86.5623 88.328C86.5623 88.6392 86.4554 88.8955 86.2396 89.1131C86.0237 89.3308 85.7656 89.4386 85.461 89.4386C85.1564 89.4386 84.8982 89.3308 84.6824 89.1131C84.4666 88.8955 84.3597 88.6331 84.3597 88.328C84.3597 88.0229 84.4666 87.7544 84.6804 87.5388C84.8942 87.3232 85.1544 87.2154 85.463 87.2154H85.459Z" fill="black"/>
<path d="M91.7501 86.9062V76.3191H94.4772L99.4815 82.7914H99.5077V76.3191H102.235V86.9062H99.5057L94.5094 80.4197H94.4772V86.9062H91.7501Z" fill="black"/>
<path d="M109.069 80.9953H114.488C114.474 81.9005 114.408 82.6246 114.291 83.1697C114.127 83.9101 113.835 84.5793 113.413 85.1793C112.435 86.5645 110.993 87.2561 109.089 87.2561C107.429 87.2561 106.081 86.7415 105.043 85.7122C104.004 84.683 103.485 83.3345 103.485 81.6666C103.485 79.9987 104.008 78.5687 105.053 77.5293C106.097 76.49 107.475 75.9692 109.184 75.9692C111.437 75.9692 113.014 76.9557 113.916 78.9308L111.326 80.021C110.908 78.9023 110.152 78.3409 109.054 78.3409C108.211 78.3409 107.534 78.6948 107.021 79.4047C106.559 80.0454 106.327 80.8041 106.327 81.6808C106.327 82.5575 106.565 83.3263 107.041 83.9569C107.564 84.6464 108.25 84.9922 109.101 84.9922C109.714 84.9922 110.21 84.8417 110.597 84.5406C111.009 84.2172 111.243 83.7555 111.297 83.1555H109.067V80.9953H109.069Z" fill="black"/>
<path d="M123.628 81.2496L120.269 76.3191H123.628L125.225 79.0549L126.831 76.3191H130.183L126.831 81.2496L130.714 86.9062H127.43L125.225 83.4484L122.817 86.9062H119.523L123.63 81.2496H123.628Z" fill="black"/>
<path d="M137.937 85.0674H134.179L133.457 86.9062H130.556L134.596 76.319H137.574L141.531 86.9062H138.624L137.937 85.0674ZM134.302 74.9949L133.384 75.0498L133.465 74.94C133.656 74.6023 133.939 74.2891 134.314 74.0002C134.82 73.6158 135.274 73.4429 135.674 73.4795C135.855 73.4978 136.115 73.5853 136.456 73.7399C136.797 73.8945 137.053 73.9819 137.225 74.0002C137.416 74.0226 137.646 73.9067 137.919 73.6504L138.862 73.6097C138.536 74.0531 138.167 74.4172 137.753 74.6999C137.241 75.0518 136.767 75.2064 136.333 75.1657C136.162 75.1474 135.922 75.0579 135.619 74.8972C135.314 74.7366 135.081 74.6491 134.911 74.6288C134.744 74.6104 134.54 74.7305 134.298 74.9928L134.302 74.9949ZM137.198 82.9622L136.083 79.5877H136.057L134.927 82.9622H137.198Z" fill="black"/>
<path d="M149.874 80.4055H153.817V76.3191H156.544V86.9062H153.817V82.5656H149.874V86.9062H147.146V76.3191H149.874V80.4055Z" fill="black"/>
<path d="M163.616 75.9693C165.179 75.9693 166.526 76.4737 167.654 77.4846C168.832 78.5403 169.421 79.8502 169.421 81.4144C169.421 83.1413 168.882 84.5488 167.803 85.6309C166.724 86.7151 165.328 87.2561 163.614 87.2561C161.899 87.2561 160.509 86.713 159.428 85.6269C158.347 84.5407 157.807 83.1372 157.807 81.4144C157.807 79.8462 158.396 78.5362 159.574 77.4846C160.703 76.4737 162.049 75.9693 163.612 75.9693H163.616ZM163.616 78.6379C162.831 78.6379 162.147 78.9024 161.562 79.4332C160.955 79.9824 160.651 80.6476 160.651 81.4286C160.651 82.3053 160.925 83.0477 161.474 83.6498C162.04 84.2763 162.754 84.5895 163.616 84.5895C164.477 84.5895 165.195 84.2783 165.758 83.6579C166.306 83.0559 166.581 82.3114 166.581 81.4307C166.581 80.6496 166.276 79.9845 165.669 79.4353C165.084 78.9044 164.4 78.64 163.616 78.64V78.6379ZM161.345 74.997L163.616 73.2701L165.927 74.997L165.12 75.6744L163.616 74.5068L162.113 75.6764L161.345 74.997ZM163.616 87.7768C163.924 87.7768 164.185 87.8846 164.398 88.0982C164.612 88.3138 164.719 88.5762 164.719 88.8874C164.719 89.1986 164.612 89.4549 164.396 89.6726C164.181 89.8902 163.92 89.998 163.618 89.998C163.315 89.998 163.055 89.8902 162.839 89.6726C162.623 89.4549 162.516 89.1925 162.516 88.8874C162.516 88.5823 162.623 88.3138 162.837 88.0982C163.051 87.8826 163.311 87.7768 163.62 87.7768H163.616Z" fill="black"/>
<path d="M173.415 76.3191V86.9062H170.688V76.3191H173.415Z" fill="black"/>
<path d="M186.83 76.9089L185.741 79.0406C185.184 78.5748 184.581 78.3409 183.931 78.3409C183.641 78.3409 183.383 78.4141 183.157 78.5606C182.895 78.7253 182.762 78.947 182.762 79.2257C182.762 79.6508 183.165 79.9864 183.972 80.2325L184.666 80.4461C185.495 80.7024 186.11 81.0238 186.507 81.4123C187.005 81.9025 187.256 82.5432 187.256 83.3385C187.256 84.5874 186.884 85.5454 186.14 86.2187C185.428 86.8635 184.444 87.1849 183.189 87.1849C181.87 87.1849 180.64 86.7821 179.498 85.9787L180.668 83.7575C181.497 84.4898 182.306 84.8559 183.096 84.8559C183.453 84.8559 183.756 84.7705 184 84.6016C184.276 84.4043 184.415 84.1338 184.415 83.786C184.415 83.4382 184.214 83.1758 183.81 82.9561C183.607 82.8463 183.258 82.7202 182.764 82.5798C181.749 82.2869 181.059 81.9838 180.696 81.6686C180.18 81.2211 179.922 80.5275 179.922 79.5918C179.922 78.5179 180.256 77.6575 180.928 77.0106C181.6 76.3638 182.469 76.0404 183.538 76.0404C184.716 76.0404 185.813 76.3313 186.83 76.911V76.9089Z" fill="black"/>
<path d="M197.664 76.8052V82.2706C197.664 83.1615 197.613 83.8267 197.514 84.266C197.355 84.9617 197.04 85.5414 196.57 86.0072C195.772 86.7923 194.612 87.1869 193.089 87.1869C191.566 87.1869 190.404 86.7943 189.607 86.0072C189.131 85.5414 188.815 84.9596 188.655 84.266C188.555 83.8368 188.506 83.1717 188.506 82.2706V76.3191H191.233V81.8943C191.233 82.7995 191.322 83.4504 191.499 83.849C191.776 84.4674 192.306 84.7745 193.091 84.7745C193.875 84.7745 194.398 84.4654 194.676 83.849C194.854 83.4504 194.943 82.7995 194.943 81.8943V76.3191H197.655C197.863 76.2458 197.968 76.1177 197.968 75.9346C197.968 75.894 197.962 75.8492 197.948 75.7984C197.893 75.5746 197.68 75.4627 197.309 75.4627L198.008 74.8444C198.2 74.8342 198.412 74.8993 198.648 75.0376C198.934 75.2024 199.075 75.4526 199.075 75.7862C199.075 76.0831 198.91 76.3374 198.579 76.5469C198.299 76.7259 198.002 76.8194 197.688 76.8276L197.668 76.8072L197.664 76.8052ZM195.59 74.0003L193.101 75.4465L192.462 74.8444L194.686 73.1033L195.59 74.0023V74.0003Z" fill="black"/>
<path d="M206.904 76.5713V79.8705C206.333 79.0935 205.534 78.705 204.509 78.705C203.68 78.705 203.005 78.9837 202.486 79.541C201.968 80.0983 201.708 80.798 201.708 81.6401C201.708 82.4822 201.97 83.184 202.496 83.7169C203.023 84.2518 203.707 84.5183 204.55 84.5183C205.498 84.5183 206.282 84.144 206.902 83.3935V86.6927C205.845 87.0222 205.044 87.1869 204.495 87.1869C202.922 87.1869 201.593 86.6601 200.51 85.6024C199.412 84.5325 198.864 83.2084 198.864 81.6259C198.864 80.0434 199.38 78.821 200.415 77.7511C201.52 76.6079 202.851 76.0364 204.407 76.0364C205.217 76.0364 206.05 76.2154 206.902 76.5713H206.904Z" fill="black"/>
<path d="M216.117 80.6861L219.415 76.317H222.802L218.621 81.3289L223.177 86.9041H219.641L216.119 82.3093H216.085V86.9041H213.358V76.317H216.085V80.6861H216.119H216.117Z" fill="black"/>
<path d="M226.636 80.4055H230.58V76.3191H233.307V86.9062H230.58V82.5656H226.636V86.9062H223.909V76.3191H226.636V80.4055Z" fill="black"/>
<path d="M240.379 75.9693C241.942 75.9693 243.289 76.4737 244.417 77.4846C245.595 78.5403 246.184 79.8502 246.184 81.4144C246.184 83.1413 245.645 84.5488 244.566 85.6309C243.487 86.7151 242.091 87.2561 240.377 87.2561C238.662 87.2561 237.272 86.713 236.191 85.6269C235.11 84.5407 234.57 83.1372 234.57 81.4144C234.57 79.8461 235.159 78.5362 236.337 77.4846C237.466 76.4737 238.811 75.9693 240.375 75.9693H240.379ZM240.379 78.6379C239.594 78.6379 238.91 78.9023 238.325 79.4332C237.718 79.9824 237.414 80.6476 237.414 81.4286C237.414 82.3053 237.688 83.0477 238.237 83.6498C238.803 84.2763 239.517 84.5895 240.379 84.5895C241.24 84.5895 241.958 84.2783 242.521 83.6579C243.069 83.0558 243.344 82.3114 243.344 81.4306C243.344 80.6496 243.039 79.9845 242.432 79.4353C241.847 78.9044 241.163 78.64 240.379 78.64V78.6379ZM239.883 74.9543V74.0024C239.927 74.0207 239.999 74.0288 240.1 74.0288C240.282 74.0288 240.443 73.9841 240.582 73.8925C240.746 73.7868 240.826 73.6505 240.826 73.4817C240.826 73.203 240.691 73.0627 240.419 73.0627C240.147 73.0627 240.032 73.203 240.032 73.4817H238.916C238.926 73.0667 239.084 72.7392 239.392 72.5013C239.679 72.2775 240.032 72.1656 240.453 72.1656C240.835 72.1656 241.165 72.2877 241.446 72.5297C241.744 72.786 241.894 73.1033 241.894 73.4817C241.894 74.0797 241.561 74.4885 240.895 74.7021V74.9563L240.379 75.1699L239.883 74.9563V74.9543Z" fill="black"/>
<path d="M253.427 78.6501H250.177V80.4197H253.258V82.7507H250.177V84.5752H253.427V86.9062H247.45V76.3191H253.427V78.6501Z" fill="black"/>
<path d="M261.745 76.3191L264.281 82.7548L266.83 76.3191H269.795L265.313 86.9062H263.192L258.778 76.3191H261.743H261.745Z" fill="black"/>
<path d="M280.512 86.9062H277.605L276.917 85.0674H273.16L272.438 86.9062H269.537L273.577 76.3191H276.554L280.512 86.9062ZM275.689 74.5637L275.05 75.1658L272.555 73.7196L273.458 72.8206L275.689 74.5617V74.5637ZM276.179 82.9622L275.064 79.5878H275.038L273.908 82.9622H276.179Z" fill="black"/>
<path d="M288.854 76.3191V84.5752H292.132V86.9062H286.127V76.3191H288.854Z" fill="black"/>
<path d="M298.306 75.9692C299.87 75.9692 301.217 76.4737 302.345 77.4846C303.523 78.5403 304.111 79.8502 304.111 81.4143C304.111 83.1412 303.573 84.5488 302.494 85.6309C301.415 86.715 300.019 87.2561 298.304 87.2561C296.59 87.2561 295.2 86.713 294.119 85.6268C293.038 84.5406 292.497 83.1372 292.497 81.4143C292.497 79.8461 293.086 78.5362 294.264 77.4846C295.394 76.4737 296.739 75.9692 298.302 75.9692H298.306ZM298.306 78.6379C297.522 78.6379 296.838 78.9023 296.253 79.4332C295.646 79.9824 295.341 80.6475 295.341 81.4286C295.341 82.3052 295.616 83.0477 296.164 83.6497C296.731 84.2762 297.445 84.5895 298.306 84.5895C299.168 84.5895 299.886 84.2782 300.449 83.6579C300.997 83.0558 301.271 82.3113 301.271 81.4306C301.271 80.6495 300.967 79.9844 300.36 79.4352C299.775 78.9043 299.091 78.6399 298.306 78.6399V78.6379ZM296.035 74.997L298.306 73.2701L300.618 74.997L299.811 75.6743L298.306 74.5068L296.804 75.6763L296.035 74.997ZM303.115 73.0484L300.62 74.4946L299.981 73.8925L302.211 72.1514L303.115 73.0504V73.0484Z" fill="black"/>
<path d="M308.105 76.3191V86.9062H305.378V76.3191H308.105Z" fill="black"/>
<path d="M321.521 76.9089L320.431 79.0406C319.875 78.5748 319.272 78.3409 318.622 78.3409C318.332 78.3409 318.073 78.4141 317.848 78.5606C317.585 78.7253 317.452 78.947 317.452 79.2257C317.452 79.6508 317.856 79.9864 318.662 80.2325L319.356 80.4461C320.185 80.7024 320.8 81.0238 321.198 81.4123C321.696 81.9025 321.946 82.5432 321.946 83.3385C321.946 84.5874 321.575 85.5454 320.831 86.2187C320.119 86.8635 319.134 87.1849 317.88 87.1849C316.561 87.1849 315.33 86.7821 314.189 85.9787L315.358 83.7575C316.187 84.4898 316.996 84.8559 317.787 84.8559C318.144 84.8559 318.447 84.7705 318.691 84.6016C318.967 84.4043 319.106 84.1338 319.106 83.786C319.106 83.4382 318.904 83.1758 318.501 82.9561C318.297 82.8463 317.948 82.7202 317.454 82.5798C316.44 82.2869 315.75 81.9838 315.387 81.6686C314.87 81.2211 314.612 80.5275 314.612 79.5918C314.612 78.5179 314.947 77.6575 315.619 77.0106C316.29 76.3638 317.16 76.0404 318.229 76.0404C319.407 76.0404 320.504 76.3313 321.521 76.911V76.9089Z" fill="black"/>
<path d="M328.532 75.9692C330.095 75.9692 331.443 76.4737 332.57 77.4846C333.748 78.5403 334.337 79.8502 334.337 81.4143C334.337 83.1412 333.798 84.5488 332.719 85.6309C331.64 86.713 330.244 87.2561 328.53 87.2561C326.815 87.2561 325.426 86.713 324.344 85.6268C323.263 84.5406 322.723 83.1372 322.723 81.4143C322.723 79.8461 323.312 78.5362 324.49 77.4846C325.619 76.4737 326.965 75.9692 328.528 75.9692H328.532ZM328.532 78.6379C327.747 78.6379 327.063 78.9023 326.479 79.4332C325.871 79.9824 325.567 80.6475 325.567 81.4286C325.567 82.3052 325.841 83.0477 326.39 83.6497C326.957 84.2762 327.671 84.5895 328.532 84.5895C329.393 84.5895 330.111 84.2782 330.674 83.6579C331.223 83.0558 331.497 82.3113 331.497 81.4306C331.497 80.6495 331.192 79.9844 330.585 79.4352C330 78.9043 329.317 78.6399 328.532 78.6399V78.6379ZM326.261 74.997L328.532 73.2701L330.843 74.997L330.037 75.6743L328.532 74.5068L327.029 75.6763L326.261 74.997ZM333.341 73.0484L330.845 74.4946L330.206 73.8925L332.437 72.1514L333.341 73.0504V73.0484Z" fill="black"/>
<path d="M335.604 86.9062V76.3191H338.331L343.335 82.7914H343.361V76.3191H346.088V86.9062H343.359L338.363 80.4197H338.331V86.9062H335.604Z" fill="black"/>
<path d="M352.922 80.9953H358.342C358.328 81.9005 358.261 82.6246 358.144 83.1697C357.981 83.9101 357.688 84.5793 357.267 85.1793C356.289 86.5645 354.846 87.2561 352.942 87.2561C351.282 87.2561 349.935 86.7415 348.896 85.7122C347.857 84.683 347.339 83.3345 347.339 81.6666C347.339 79.9987 347.861 78.5687 348.906 77.5293C349.951 76.49 351.329 75.9692 353.037 75.9692C355.29 75.9692 356.867 76.9557 357.769 78.9308L355.179 80.021C354.762 78.9023 354.005 78.3409 352.908 78.3409C352.065 78.3409 351.387 78.6948 350.875 79.4047C350.413 80.0454 350.181 80.8041 350.181 81.6808C350.181 82.5575 350.419 83.3263 350.895 83.9569C351.417 84.6464 352.103 84.9922 352.954 84.9922C353.568 84.9922 354.064 84.8417 354.451 84.5406C354.862 84.2172 355.096 83.7555 355.151 83.1555H352.92V80.9953H352.922Z" fill="black"/>
</g>
<defs>
<clipPath id="clip0_8_62">
<rect width="401" height="74" fill="white" transform="translate(12 16)"/>
</clipPath>
</defs>
</svg>
