<svg width="563" height="325" viewBox="0 0 563 325" fill="none" xmlns="http://www.w3.org/2000/svg">
	<g clip-path="url(#clip0_3334_830)">
		<path
			d="M15.99 15.1699C15.76 33.6999 24.57 45.2799 35.14 51.1899C48.47 58.6399 61.45 53.6399 68.85 66.8999C71.34 71.3699 72.51 77.7499 72.51 77.7499C72.18 65.6099 69.64 53.0599 62.09 43.7499C47.59 25.8999 20.82 30.4299 15.99 15.1699Z"
			fill="url(#paint0_linear_3334_830)" />
		<path
			d="M34.68 59.0499C29.64 57.1899 24.62 53.1799 22.63 47.3899C21.58 53.1299 22.67 60.0899 25.85 65.2299C31.44 74.2799 39 71.4399 46.85 68.5899C52.97 66.3699 59.27 64.1599 64.94 67.5899C60.58 63.2599 55.23 62.4199 50.08 61.7399C44.93 61.0599 39.72 60.9099 34.68 59.0499Z"
			fill="url(#paint1_linear_3334_830)" />
		<path
			d="M60.16 19.47C52.79 13.48 41.94 9.25 39.71 0C36.71 6.55 38.97 14.13 41.96 18.58C46.45 25.25 55.12 28.97 60.15 34.1C66.85 40.93 71.79 49.7 73.25 61.16C73.25 61.15 77.69 33.74 60.16 19.47Z"
			fill="url(#paint2_linear_3334_830)" />
		<path
			d="M329.4 202.56C330.88 219.07 272.33 287.48 166.93 252.88C45.26 212.95 0 260.02 0 260.02C0 260.02 8.84 226.89 81.03 221.3L82.54 54.44C82.54 44.81 86.58 35.63 93.65 29.09L117.6 7.04004L116.09 189.65L115.94 206.5L115.76 220.52C132.23 221.16 151.37 223.19 172.79 226.56C314.52 248.69 329.4 202.56 329.4 202.56Z"
			fill="#003A28" />
		<path
			d="M198.93 156.37C199.87 158.61 200.8 160.87 201.71 163.14C202.62 160.74 203.56 158.41 204.54 156.17C205.52 153.93 206.55 151.77 207.66 149.69L249.28 71.6199C249.8 70.6399 250.35 69.8599 250.94 69.2799C251.52 68.6999 252.16 68.2699 252.84 68.0199C253.52 67.7599 254.29 67.5999 255.13 67.5299C255.97 67.4699 256.98 67.4299 258.15 67.4299H277.94V185.27C277.94 198.03 267.6 208.37 254.84 208.37V117.33C254.84 115.64 254.89 113.79 254.99 111.77C255.09 109.76 255.24 107.71 255.43 105.63L212.84 185.56C210.83 189.39 207.74 191.31 203.58 191.31H199.88C195.72 191.31 192.64 189.39 190.62 185.56L147.54 105.34C147.73 107.48 147.9 109.58 148.03 111.63C148.16 113.68 148.23 115.58 148.23 117.33V185.27C148.23 198.03 137.89 208.37 125.13 208.37V67.4199H144.92C146.09 67.4199 147.09 67.4499 147.94 67.5199C148.78 67.5899 149.55 67.7499 150.23 68.0099C150.91 68.2699 151.53 68.6899 152.08 69.2699C152.63 69.8499 153.17 70.6399 153.69 71.6099L195.89 149.88C196.97 151.96 197.99 154.12 198.93 156.37Z"
			fill="#50B848" />
		<path d="M300.93 208.37H294.54V67.4199H320.86V188.44C320.86 199.45 311.94 208.37 300.93 208.37Z"
			fill="#50B848" />
		<path
			d="M96.1 279.73C99.17 279.73 101.79 280.02 103.95 280.59C106.11 281.16 107.87 281.96 109.23 283C110.59 284.04 111.59 285.3 112.21 286.79C112.83 288.28 113.14 289.93 113.14 291.77C113.14 292.77 113 293.73 112.71 294.65C112.42 295.58 111.98 296.44 111.37 297.25C110.76 298.06 109.98 298.79 109.02 299.46C108.06 300.13 106.91 300.71 105.57 301.2C108.5 301.91 110.67 303.06 112.07 304.65C113.47 306.24 114.18 308.29 114.18 310.82C114.18 312.71 113.81 314.47 113.08 316.1C112.35 317.73 111.27 319.15 109.86 320.36C108.44 321.57 106.7 322.52 104.62 323.2C102.54 323.88 100.17 324.22 97.51 324.22H79.74V279.74H96.1V279.73ZM90.06 287.45V298.44H95.43C96.57 298.44 97.6 298.36 98.51 298.2C99.42 298.04 100.2 297.75 100.85 297.34C101.49 296.93 101.98 296.37 102.32 295.66C102.66 294.95 102.82 294.05 102.82 292.97C102.82 291.91 102.69 291.03 102.42 290.33C102.15 289.63 101.75 289.06 101.2 288.64C100.65 288.21 99.95 287.91 99.11 287.72C98.26 287.54 97.26 287.45 96.1 287.45H90.06ZM97.32 316.43C98.68 316.43 99.8 316.26 100.66 315.91C101.53 315.56 102.2 315.12 102.69 314.57C103.18 314.02 103.51 313.4 103.7 312.71C103.89 312.02 103.97 311.32 103.97 310.6C103.97 309.79 103.86 309.05 103.65 308.4C103.44 307.75 103.07 307.2 102.55 306.75C102.03 306.3 101.34 305.96 100.49 305.71C99.64 305.47 98.56 305.34 97.25 305.34H90.04V316.42H97.32V316.43Z"
			fill="#50B848" />
		<path
			d="M196.36 324.21H188.36C187.46 324.21 186.74 324 186.19 323.58C185.64 323.16 185.22 322.63 184.94 321.98L182.31 314.23H165.4L162.77 321.98C162.55 322.55 162.14 323.06 161.56 323.52C160.98 323.98 160.26 324.21 159.41 324.21H151.35L168.57 279.73H179.13L196.36 324.21ZM179.97 307.21L175.85 295.03C175.54 294.26 175.22 293.35 174.87 292.3C174.52 291.25 174.18 290.12 173.83 288.9C173.52 290.14 173.2 291.29 172.85 292.35C172.5 293.41 172.18 294.32 171.87 295.1L167.78 307.22H179.97V307.21Z"
			fill="#50B848" />
		<path
			d="M280.11 301.96C280.11 305.18 279.55 308.17 278.45 310.94C277.34 313.71 275.78 316.12 273.76 318.16C271.74 320.21 269.32 321.81 266.48 322.97C263.64 324.13 260.49 324.71 257.03 324.71C253.57 324.71 250.42 324.13 247.57 322.97C244.72 321.81 242.28 320.21 240.26 318.16C238.23 316.12 236.67 313.71 235.56 310.94C234.45 308.17 233.9 305.18 233.9 301.96C233.9 298.74 234.45 295.75 235.56 292.98C236.67 290.21 238.24 287.81 240.26 285.77C242.28 283.74 244.72 282.14 247.57 280.98C250.42 279.82 253.57 279.24 257.03 279.24C260.49 279.24 263.64 279.82 266.48 281C269.32 282.17 271.75 283.77 273.76 285.81C275.77 287.85 277.34 290.25 278.45 293.02C279.56 295.78 280.11 298.76 280.11 301.96ZM269.55 301.96C269.55 299.76 269.26 297.78 268.7 296.02C268.13 294.26 267.31 292.77 266.24 291.55C265.17 290.33 263.86 289.39 262.32 288.74C260.78 288.09 259.01 287.76 257.04 287.76C255.05 287.76 253.27 288.09 251.71 288.74C250.15 289.39 248.84 290.33 247.77 291.55C246.7 292.77 245.88 294.26 245.31 296.02C244.74 297.78 244.46 299.76 244.46 301.96C244.46 304.18 244.75 306.17 245.31 307.93C245.87 309.69 246.7 311.18 247.77 312.4C248.84 313.62 250.15 314.55 251.71 315.19C253.27 315.83 255.04 316.15 257.04 316.15C259.01 316.15 260.77 315.83 262.32 315.19C263.87 314.55 265.17 313.62 266.24 312.4C267.31 311.18 268.13 309.69 268.7 307.93C269.26 306.16 269.55 304.17 269.55 301.96Z"
			fill="#50B848" />
		<path d="M400.31 315.97V324.21H373.5V279.73H383.82V315.97H400.31Z" fill="#50B848" />
		<path
			d="M484.76 301.96C484.76 305.18 484.21 308.17 483.1 310.94C481.99 313.71 480.43 316.12 478.41 318.16C476.4 320.21 473.97 321.81 471.13 322.97C468.29 324.13 465.14 324.71 461.68 324.71C458.22 324.71 455.06 324.13 452.22 322.97C449.38 321.81 446.93 320.21 444.91 318.16C442.88 316.12 441.32 313.71 440.21 310.94C439.1 308.17 438.55 305.18 438.55 301.96C438.55 298.74 439.1 295.75 440.21 292.98C441.32 290.21 442.89 287.81 444.91 285.77C446.94 283.74 449.37 282.14 452.22 280.98C455.07 279.82 458.22 279.24 461.68 279.24C465.14 279.24 468.29 279.82 471.13 281C473.97 282.17 476.4 283.77 478.41 285.81C480.42 287.85 481.99 290.25 483.1 293.02C484.2 295.78 484.76 298.76 484.76 301.96ZM474.19 301.96C474.19 299.76 473.9 297.78 473.33 296.02C472.76 294.26 471.94 292.77 470.87 291.55C469.8 290.33 468.49 289.39 466.95 288.74C465.41 288.09 463.64 287.76 461.67 287.76C459.67 287.76 457.9 288.09 456.34 288.74C454.78 289.39 453.47 290.33 452.4 291.55C451.33 292.77 450.51 294.26 449.94 296.02C449.37 297.78 449.08 299.76 449.08 301.96C449.08 304.18 449.37 306.17 449.94 307.93C450.51 309.69 451.33 311.18 452.4 312.4C453.47 313.62 454.78 314.55 456.34 315.19C457.9 315.83 459.67 316.15 461.67 316.15C463.64 316.15 465.4 315.83 466.95 315.19C468.5 314.55 469.8 313.62 470.87 312.4C471.94 311.18 472.76 309.69 473.33 307.93C473.91 306.16 474.19 304.17 474.19 301.96Z"
			fill="#50B848" />
		<path
			d="M557.39 312.7C557.63 312.7 557.88 312.75 558.12 312.84C558.36 312.93 558.6 313.09 558.82 313.31L562.91 317.61C561.12 319.95 558.87 321.72 556.18 322.91C553.48 324.1 550.29 324.7 546.61 324.7C543.23 324.7 540.2 324.13 537.53 322.98C534.85 321.83 532.58 320.24 530.72 318.22C528.86 316.2 527.43 313.79 526.43 311.01C525.43 308.23 524.93 305.21 524.93 301.96C524.93 298.64 525.47 295.59 526.55 292.82C527.63 290.04 529.14 287.64 531.1 285.63C533.06 283.62 535.39 282.05 538.12 280.93C540.85 279.81 543.85 279.25 547.13 279.25C548.8 279.25 550.37 279.4 551.85 279.69C553.33 279.99 554.71 280.39 555.99 280.91C557.27 281.43 558.45 282.05 559.53 282.79C560.61 283.52 561.57 284.32 562.4 285.17L558.92 289.84C558.7 290.13 558.43 290.38 558.13 290.62C557.82 290.85 557.4 290.97 556.85 290.97C556.48 290.97 556.14 290.89 555.81 290.73C555.48 290.57 555.14 290.37 554.77 290.13C554.4 289.9 554 289.64 553.56 289.37C553.12 289.09 552.6 288.84 552 288.61C551.4 288.38 550.7 288.18 549.89 288.02C549.09 287.86 548.14 287.78 547.07 287.78C545.36 287.78 543.8 288.1 542.38 288.73C540.96 289.36 539.74 290.28 538.72 291.49C537.7 292.7 536.9 294.19 536.34 295.95C535.78 297.71 535.5 299.72 535.5 301.98C535.5 304.26 535.81 306.28 536.43 308.06C537.05 309.83 537.9 311.32 538.96 312.53C540.03 313.74 541.28 314.66 542.7 315.29C544.12 315.92 545.65 316.24 547.28 316.24C548.22 316.24 549.07 316.19 549.84 316.1C550.61 316.01 551.34 315.86 552.01 315.64C552.68 315.43 553.31 315.14 553.9 314.79C554.49 314.43 555.09 313.98 555.7 313.43C555.94 313.23 556.21 313.06 556.49 312.93C556.79 312.77 557.08 312.7 557.39 312.7Z"
			fill="#50B848" />
		<path d="M428.05 58.3899L346.17 246.9H320.7L392.48 81.7199C398.64 67.5499 412.61 58.3899 428.05 58.3899Z"
			fill="#003A28" />
		<path d="M458.27 157.59H441.52V174.34H458.27V157.59Z" fill="#42A04D" />
		<path d="M476.13 174.96H459.38V191.71H476.13V174.96Z" fill="#42A04D" />
		<path
			d="M461.1 58.3899H436.3L412.81 112.54L376.26 196.66L354.45 246.91H360.99C383.56 246.91 403.87 233.2 412.31 212.26L413.13 210.27L447.41 126.38L457.02 102.84L468.81 132.04L486.63 176.07H486.59L500.37 210.26L503.54 218.11C510.56 235.51 527.44 246.91 546.2 246.91H560.68L487.7 75.9499C483.15 65.2999 472.69 58.3899 461.1 58.3899Z"
			fill="#50B848" />
	</g>
	<defs>
		<linearGradient id="paint0_linear_3334_830" x1="15.9802" y1="46.456" x2="72.4986" y2="46.456"
			gradientUnits="userSpaceOnUse">
			<stop stop-color="#51B848" />
			<stop offset="0.1393" stop-color="#4AA746" />
			<stop offset="0.4013" stop-color="#378741" />
			<stop offset="0.7549" stop-color="#1A5835" />
			<stop offset="1" stop-color="#003A28" />
		</linearGradient>
		<linearGradient id="paint1_linear_3334_830" x1="22.2424" y1="59.4087" x2="64.9372" y2="59.4087"
			gradientUnits="userSpaceOnUse">
			<stop stop-color="#51B848" />
			<stop offset="0.1393" stop-color="#4AA746" />
			<stop offset="0.4013" stop-color="#378741" />
			<stop offset="0.7549" stop-color="#1A5835" />
			<stop offset="1" stop-color="#003A28" />
		</linearGradient>
		<linearGradient id="paint2_linear_3334_830" x1="38.3003" y1="30.5864" x2="73.7552" y2="30.5864"
			gradientUnits="userSpaceOnUse">
			<stop stop-color="#51B848" />
			<stop offset="0.1393" stop-color="#4AA746" />
			<stop offset="0.4013" stop-color="#378741" />
			<stop offset="0.7549" stop-color="#1A5835" />
			<stop offset="1" stop-color="#003A28" />
		</linearGradient>
		<clipPath id="clip0_3334_830">
			<rect width="562.91" height="324.7" fill="white" />
		</clipPath>
	</defs>
</svg>